<?xml version="1.0" encoding="UTF-8" standalone="no"?>
<!DOCTYPE svg PUBLIC "-//W3C//DTD SVG 1.1//EN"
 "http://www.w3.org/Graphics/SVG/1.1/DTD/svg11.dtd">
<!-- Generated by graphviz version 2.40.1 (20161225.0304)
 -->
<!-- Title: g Pages: 1 -->
<svg width="173pt" height="392pt"
 viewBox="0.00 0.00 172.77 392.00" xmlns="http://www.w3.org/2000/svg" xmlns:xlink="http://www.w3.org/1999/xlink">
<g id="graph0" class="graph" transform="scale(1 1) rotate(0) translate(4 388)">
<title>g</title>
<polygon fill="#ffffff" stroke="transparent" points="-4,4 -4,-388 168.7738,-388 168.7738,4 -4,4"/>
<!-- 0 -->
<g id="node1" class="node">
<title>0</title>
<ellipse fill="none" stroke="#000000" cx="68.7738" cy="-366" rx="18" ry="18"/>
<text text-anchor="middle" x="68.7738" y="-362.3" font-family="Times,serif" font-size="14.00" fill="#000000">0</text>
</g>
<!-- 1 -->
<g id="node2" class="node">
<title>1</title>
<ellipse fill="none" stroke="#000000" cx="36.7738" cy="-192" rx="18" ry="18"/>
<text text-anchor="middle" x="36.7738" y="-188.3" font-family="Times,serif" font-size="14.00" fill="#000000">1</text>
</g>
<!-- 0&#45;&gt;1 -->
<g id="edge4" class="edge">
<title>0&#45;&gt;1</title>
<path fill="none" stroke="#000000" d="M56.449,-352.4293C45.4507,-339.3298 30.1311,-318.3856 23.7738,-297 16.0823,-271.1262 21.5049,-240.3581 27.5202,-218.8405"/>
<polygon fill="#000000" stroke="#000000" points="30.9265,-219.6673 30.4659,-209.0825 24.2252,-217.6443 30.9265,-219.6673"/>
<text text-anchor="middle" x="32.7738" y="-275.3" font-family="Times,serif" font-size="14.00" fill="#000000">7/7</text>
</g>
<!-- 2 -->
<g id="node3" class="node">
<title>2</title>
<ellipse fill="none" stroke="#000000" cx="146.7738" cy="-192" rx="18" ry="18"/>
<text text-anchor="middle" x="146.7738" y="-188.3" font-family="Times,serif" font-size="14.00" fill="#000000">2</text>
</g>
<!-- 0&#45;&gt;2 -->
<g id="edge5" class="edge">
<title>0&#45;&gt;2</title>
<path fill="none" stroke="#000000" d="M82.7721,-354.0854C89.799,-347.5374 98.0177,-338.9422 103.7738,-330 125.9114,-295.609 137.2901,-249.0726 142.6364,-219.7956"/>
<polygon fill="#000000" stroke="#000000" points="146.1022,-220.2922 144.3419,-209.8447 139.2028,-219.1097 146.1022,-220.2922"/>
<text text-anchor="middle" x="141.7738" y="-275.3" font-family="Times,serif" font-size="14.00" fill="#000000">8/8</text>
</g>
<!-- 3 -->
<g id="node4" class="node">
<title>3</title>
<ellipse fill="none" stroke="#000000" cx="68.7738" cy="-279" rx="18" ry="18"/>
<text text-anchor="middle" x="68.7738" y="-275.3" font-family="Times,serif" font-size="14.00" fill="#000000">3</text>
</g>
<!-- 0&#45;&gt;3 -->
<g id="edge6" class="edge">
<title>0&#45;&gt;3</title>
<path fill="none" stroke="#000000" d="M68.7738,-347.9735C68.7738,-336.1918 68.7738,-320.5607 68.7738,-307.1581"/>
<polygon fill="#000000" stroke="#000000" points="72.2739,-307.0033 68.7738,-297.0034 65.2739,-307.0034 72.2739,-307.0033"/>
<text text-anchor="middle" x="84.2738" y="-318.8" font-family="Times,serif" font-size="14.00" fill="#000000">10/10</text>
</g>
<!-- 4 -->
<g id="node5" class="node">
<title>4</title>
<ellipse fill="none" stroke="#000000" cx="93.7738" cy="-105" rx="18" ry="18"/>
<text text-anchor="middle" x="93.7738" y="-101.3" font-family="Times,serif" font-size="14.00" fill="#000000">4</text>
</g>
<!-- 1&#45;&gt;4 -->
<g id="edge2" class="edge">
<title>1&#45;&gt;4</title>
<path fill="none" stroke="#000000" d="M44.4562,-175.4251C49.4591,-165.1987 56.4073,-151.9826 63.7738,-141 67.0594,-136.1015 70.8902,-131.0902 74.6938,-126.4229"/>
<polygon fill="#000000" stroke="#000000" points="77.6124,-128.3913 81.3873,-118.4918 72.2629,-123.8765 77.6124,-128.3913"/>
<text text-anchor="middle" x="72.7738" y="-144.8" font-family="Times,serif" font-size="14.00" fill="#000000">0/1</text>
</g>
<!-- 5 -->
<g id="node6" class="node">
<title>5</title>
<ellipse fill="none" stroke="#000000" cx="31.7738" cy="-18" rx="18" ry="18"/>
<text text-anchor="middle" x="31.7738" y="-14.3" font-family="Times,serif" font-size="14.00" fill="#000000">5</text>
</g>
<!-- 1&#45;&gt;5 -->
<g id="edge3" class="edge">
<title>1&#45;&gt;5</title>
<path fill="none" stroke="#000000" d="M36.2482,-173.7078C35.3756,-143.3436 33.6222,-82.3226 32.5884,-46.3464"/>
<polygon fill="#000000" stroke="#000000" points="36.0783,-45.9424 32.2924,-36.0471 29.0812,-46.1435 36.0783,-45.9424"/>
<text text-anchor="middle" x="46.2738" y="-101.3" font-family="Times,serif" font-size="14.00" fill="#000000">8/21</text>
</g>
<!-- 2&#45;&gt;4 -->
<g id="edge1" class="edge">
<title>2&#45;&gt;4</title>
<path fill="none" stroke="#000000" d="M137.2985,-176.4461C129.3095,-163.3322 117.7408,-144.342 108.5381,-129.2358"/>
<polygon fill="#000000" stroke="#000000" points="111.3588,-127.1384 103.1671,-120.4192 105.3807,-130.7802 111.3588,-127.1384"/>
<text text-anchor="middle" x="135.2738" y="-144.8" font-family="Times,serif" font-size="14.00" fill="#000000">9/12</text>
</g>
<!-- 3&#45;&gt;1 -->
<g id="edge8" class="edge">
<title>3&#45;&gt;1</title>
<path fill="none" stroke="#000000" d="M61.4971,-262.2518C58.9562,-256.2212 56.148,-249.3409 53.7738,-243 50.9066,-235.3425 48.0109,-226.9532 45.4419,-219.2298"/>
<polygon fill="#000000" stroke="#000000" points="48.7199,-217.9929 42.2829,-209.5777 42.0671,-220.1703 48.7199,-217.9929"/>
<text text-anchor="middle" x="66.2738" y="-231.8" font-family="Times,serif" font-size="14.00" fill="#000000">1/14</text>
</g>
<!-- 3&#45;&gt;2 -->
<g id="edge9" class="edge">
<title>3&#45;&gt;2</title>
<path fill="none" stroke="#000000" d="M81.6357,-266.2145C88.3517,-259.4282 96.6352,-250.8827 103.7738,-243 112.2257,-233.6672 121.2541,-223.0633 128.845,-213.951"/>
<polygon fill="#000000" stroke="#000000" points="131.6777,-216.0177 135.3544,-206.0813 126.2837,-211.5562 131.6777,-216.0177"/>
<text text-anchor="middle" x="124.7738" y="-231.8" font-family="Times,serif" font-size="14.00" fill="#000000">1/2</text>
</g>
<!-- 3&#45;&gt;4 -->
<g id="edge10" class="edge">
<title>3&#45;&gt;4</title>
<path fill="none" stroke="#000000" d="M74.2344,-261.5573C75.9005,-255.707 77.6001,-249.1156 78.7738,-243 85.9915,-205.3908 90.0283,-161.3 92.0522,-133.2651"/>
<polygon fill="#000000" stroke="#000000" points="95.5635,-133.2179 92.7544,-123.0022 88.5798,-132.7399 95.5635,-133.2179"/>
<text text-anchor="middle" x="96.7738" y="-188.3" font-family="Times,serif" font-size="14.00" fill="#000000">5/5</text>
</g>
<!-- 3&#45;&gt;5 -->
<g id="edge7" class="edge">
<title>3&#45;&gt;5</title>
<path fill="none" stroke="#000000" d="M54.5952,-267.8396C40.1587,-255.4839 18.6728,-234.1005 9.7738,-210 -10.9942,-153.7556 7.9516,-82.4784 21.2868,-44.5614"/>
<polygon fill="#000000" stroke="#000000" points="24.7121,-45.3855 24.8615,-34.7918 18.1384,-42.9801 24.7121,-45.3855"/>
<text text-anchor="middle" x="9.7738" y="-144.8" font-family="Times,serif" font-size="14.00" fill="#000000">3/3</text>
</g>
<!-- 4&#45;&gt;5 -->
<g id="edge11" class="edge">
<title>4&#45;&gt;5</title>
<path fill="none" stroke="#000000" d="M83.2564,-90.2416C73.7258,-76.8681 59.5202,-56.9344 48.4438,-41.3918"/>
<polygon fill="#000000" stroke="#000000" points="50.9967,-38.9432 42.3429,-32.8308 45.2961,-43.0057 50.9967,-38.9432"/>
<text text-anchor="middle" x="81.2738" y="-57.8" font-family="Times,serif" font-size="14.00" fill="#000000">14/14</text>
</g>
</g>
</svg>
