<?xml version="1.0" encoding="UTF-8" standalone="no"?>
<!DOCTYPE svg PUBLIC "-//W3C//DTD SVG 1.1//EN"
 "http://www.w3.org/Graphics/SVG/1.1/DTD/svg11.dtd">
<!-- Generated by graphviz version 2.40.1 (20161225.0304)
 -->
<!-- Title: g Pages: 1 -->
<svg width="325pt" height="218pt"
 viewBox="0.00 0.00 325.03 218.00" xmlns="http://www.w3.org/2000/svg" xmlns:xlink="http://www.w3.org/1999/xlink">
<g id="graph0" class="graph" transform="scale(1 1) rotate(0) translate(4 214)">
<title>g</title>
<polygon fill="#ffffff" stroke="transparent" points="-4,4 -4,-214 321.0263,-214 321.0263,4 -4,4"/>
<!-- 0 -->
<g id="node1" class="node">
<title>0</title>
<ellipse fill="none" stroke="#000000" cx="118.0263" cy="-192" rx="18" ry="18"/>
<text text-anchor="middle" x="118.0263" y="-188.3" font-family="Times,serif" font-size="14.00" fill="#000000">0</text>
</g>
<!-- 1 -->
<g id="node2" class="node">
<title>1</title>
<ellipse fill="none" stroke="#000000" cx="205.0263" cy="-105" rx="18" ry="18"/>
<text text-anchor="middle" x="205.0263" y="-101.3" font-family="Times,serif" font-size="14.00" fill="#000000">1</text>
</g>
<!-- 0&#45;&gt;1 -->
<g id="edge7" class="edge">
<title>0&#45;&gt;1</title>
<path fill="none" stroke="#000000" d="M125.4463,-175.0273C130.6773,-164.3958 138.4479,-150.8859 148.0263,-141 157.0971,-131.638 169.064,-123.6081 179.6901,-117.5232"/>
<polygon fill="#000000" stroke="#000000" points="181.4628,-120.5433 188.5766,-112.692 178.1193,-114.3934 181.4628,-120.5433"/>
<text text-anchor="middle" x="163.5263" y="-144.8" font-family="Times,serif" font-size="14.00" fill="#000000">0/200</text>
</g>
<!-- 2 -->
<g id="node3" class="node">
<title>2</title>
<ellipse fill="none" stroke="#000000" cx="151.0263" cy="-18" rx="18" ry="18"/>
<text text-anchor="middle" x="151.0263" y="-14.3" font-family="Times,serif" font-size="14.00" fill="#000000">2</text>
</g>
<!-- 0&#45;&gt;2 -->
<g id="edge8" class="edge">
<title>0&#45;&gt;2</title>
<path fill="none" stroke="#000000" d="M101.0599,-185.9236C63.2039,-171.3856 -22.6526,-132.4077 6.0263,-87 31.7274,-46.3071 88.7078,-29.1188 123.091,-22.2397"/>
<polygon fill="#000000" stroke="#000000" points="123.7748,-25.6727 132.9765,-20.4211 122.5082,-18.7882 123.7748,-25.6727"/>
<text text-anchor="middle" x="21.5263" y="-101.3" font-family="Times,serif" font-size="14.00" fill="#000000">0/200</text>
</g>
<!-- 4 -->
<g id="node5" class="node">
<title>4</title>
<ellipse fill="none" stroke="#000000" cx="64.0263" cy="-105" rx="18" ry="18"/>
<text text-anchor="middle" x="64.0263" y="-101.3" font-family="Times,serif" font-size="14.00" fill="#000000">4</text>
</g>
<!-- 0&#45;&gt;4 -->
<g id="edge9" class="edge">
<title>0&#45;&gt;4</title>
<path fill="none" stroke="#000000" d="M102.2086,-183.3996C92.2341,-177.1316 79.9678,-167.7028 73.0263,-156 68.944,-149.1176 66.6125,-140.8566 65.3077,-133.0072"/>
<polygon fill="#000000" stroke="#000000" points="68.783,-132.5913 64.123,-123.0763 61.8322,-133.4205 68.783,-132.5913"/>
<text text-anchor="middle" x="88.5263" y="-144.8" font-family="Times,serif" font-size="14.00" fill="#000000">66/66</text>
</g>
<!-- 1&#45;&gt;0 -->
<g id="edge6" class="edge">
<title>1&#45;&gt;0</title>
<path fill="none" stroke="#000000" d="M200.5571,-122.6657C197.1546,-133.3027 191.5726,-146.5672 183.0263,-156 172.6043,-167.5031 157.6192,-176.146 144.6631,-182.0761"/>
<polygon fill="#000000" stroke="#000000" points="143.0867,-178.9433 135.2602,-186.0846 145.8318,-185.3826 143.0867,-178.9433"/>
<text text-anchor="middle" x="211.0263" y="-144.8" font-family="Times,serif" font-size="14.00" fill="#000000">66/200</text>
</g>
<!-- 1&#45;&gt;2 -->
<g id="edge5" class="edge">
<title>1&#45;&gt;2</title>
<path fill="none" stroke="#000000" d="M202.2004,-87.0268C200.0084,-76.7857 196.2584,-64.0357 190.0263,-54 185.7485,-47.1114 179.8033,-40.7048 173.8425,-35.2629"/>
<polygon fill="#000000" stroke="#000000" points="175.748,-32.2893 165.8596,-28.4852 171.2174,-37.6255 175.748,-32.2893"/>
<text text-anchor="middle" x="211.5263" y="-57.8" font-family="Times,serif" font-size="14.00" fill="#000000">0/200</text>
</g>
<!-- 2&#45;&gt;0 -->
<g id="edge3" class="edge">
<title>2&#45;&gt;0</title>
<path fill="none" stroke="#000000" d="M146.981,-35.5487C145.6697,-41.4061 144.241,-47.9749 143.0263,-54 135.3797,-91.9278 127.5934,-135.9417 122.7871,-163.8724"/>
<polygon fill="#000000" stroke="#000000" points="119.2751,-163.6461 121.038,-174.0932 126.1748,-164.827 119.2751,-163.6461"/>
<text text-anchor="middle" x="151.5263" y="-101.3" font-family="Times,serif" font-size="14.00" fill="#000000">0/200</text>
</g>
<!-- 2&#45;&gt;1 -->
<g id="edge4" class="edge">
<title>2&#45;&gt;1</title>
<path fill="none" stroke="#000000" d="M147.4738,-36.0264C146.3729,-46.2852 146.6229,-59.0352 152.0263,-69 157.9126,-79.8554 168.6606,-88.0658 178.9468,-93.8839"/>
<polygon fill="#000000" stroke="#000000" points="177.6128,-97.1325 188.1108,-98.5617 180.7953,-90.8978 177.6128,-97.1325"/>
<text text-anchor="middle" x="171.0263" y="-57.8" font-family="Times,serif" font-size="14.00" fill="#000000">32/200</text>
</g>
<!-- 3 -->
<g id="node4" class="node">
<title>3</title>
<ellipse fill="none" stroke="#000000" cx="289.0263" cy="-192" rx="18" ry="18"/>
<text text-anchor="middle" x="289.0263" y="-188.3" font-family="Times,serif" font-size="14.00" fill="#000000">3</text>
</g>
<!-- 3&#45;&gt;1 -->
<g id="edge1" class="edge">
<title>3&#45;&gt;1</title>
<path fill="none" stroke="#000000" d="M277.1769,-177.7991C268.3123,-167.369 255.7489,-152.9887 244.0263,-141 238.4458,-135.2929 232.1765,-129.3261 226.3234,-123.9288"/>
<polygon fill="#000000" stroke="#000000" points="228.4569,-121.1382 218.7038,-116.9998 223.7474,-126.3171 228.4569,-121.1382"/>
<text text-anchor="middle" x="273.5263" y="-144.8" font-family="Times,serif" font-size="14.00" fill="#000000">34/34</text>
</g>
<!-- 3&#45;&gt;2 -->
<g id="edge2" class="edge">
<title>3&#45;&gt;2</title>
<path fill="none" stroke="#000000" d="M293.7107,-174.1481C295.5199,-164.1797 296.4356,-151.6585 293.0263,-141 278.5608,-95.7764 267.7288,-84.1222 231.0263,-54 215.427,-41.1975 194.5445,-32.0036 178.0265,-26.1125"/>
<polygon fill="#000000" stroke="#000000" points="178.9861,-22.7426 168.392,-22.8686 176.7523,-29.3767 178.9861,-22.7426"/>
<text text-anchor="middle" x="301.5263" y="-101.3" font-family="Times,serif" font-size="14.00" fill="#000000">32/34</text>
</g>
</g>
</svg>
