<?xml version="1.0" encoding="UTF-8" standalone="no"?>
<!DOCTYPE svg PUBLIC "-//W3C//DTD SVG 1.1//EN"
 "http://www.w3.org/Graphics/SVG/1.1/DTD/svg11.dtd">
<!-- Generated by graphviz version 2.40.1 (20161225.0304)
 -->
<!-- Title: g Pages: 1 -->
<svg width="301pt" height="566pt"
 viewBox="0.00 0.00 301.00 566.00" xmlns="http://www.w3.org/2000/svg" xmlns:xlink="http://www.w3.org/1999/xlink">
<g id="graph0" class="graph" transform="scale(1 1) rotate(0) translate(4 562)">
<title>g</title>
<polygon fill="#ffffff" stroke="transparent" points="-4,4 -4,-562 297,-562 297,4 -4,4"/>
<!-- 0 -->
<g id="node1" class="node">
<title>0</title>
<ellipse fill="none" stroke="#000000" cx="46" cy="-540" rx="18" ry="18"/>
<text text-anchor="middle" x="46" y="-536.3" font-family="Times,serif" font-size="14.00" fill="#000000">0</text>
</g>
<!-- 1 -->
<g id="node2" class="node">
<title>1</title>
<ellipse fill="none" stroke="#000000" cx="134" cy="-453" rx="18" ry="18"/>
<text text-anchor="middle" x="134" y="-449.3" font-family="Times,serif" font-size="14.00" fill="#000000">1</text>
</g>
<!-- 0&#45;&gt;1 -->
<g id="edge7" class="edge">
<title>0&#45;&gt;1</title>
<path fill="none" stroke="#000000" d="M58.9847,-527.1629C73.4128,-512.8987 96.8938,-489.6845 113.7433,-473.0265"/>
<polygon fill="#000000" stroke="#000000" points="116.3113,-475.4094 120.962,-465.8898 111.3899,-470.4314 116.3113,-475.4094"/>
<text text-anchor="middle" x="113.5" y="-492.8" font-family="Times,serif" font-size="14.00" fill="#000000">2/2 &#45; 2</text>
</g>
<!-- 2 -->
<g id="node3" class="node">
<title>2</title>
<ellipse fill="none" stroke="#000000" cx="134" cy="-366" rx="18" ry="18"/>
<text text-anchor="middle" x="134" y="-362.3" font-family="Times,serif" font-size="14.00" fill="#000000">2</text>
</g>
<!-- 0&#45;&gt;2 -->
<g id="edge9" class="edge">
<title>0&#45;&gt;2</title>
<path fill="none" stroke="#000000" d="M47.2761,-521.9274C49.4353,-500.1851 55.1442,-463.104 70,-435 80.4041,-415.3177 97.8639,-397.04 111.9211,-384.2475"/>
<polygon fill="#000000" stroke="#000000" points="114.5302,-386.6139 119.7255,-377.3803 109.906,-381.3587 114.5302,-386.6139"/>
<text text-anchor="middle" x="88.5" y="-449.3" font-family="Times,serif" font-size="14.00" fill="#000000">4/4 &#45; 5</text>
</g>
<!-- 6 -->
<g id="node7" class="node">
<title>6</title>
<ellipse fill="none" stroke="#000000" cx="78" cy="-105" rx="18" ry="18"/>
<text text-anchor="middle" x="78" y="-101.3" font-family="Times,serif" font-size="14.00" fill="#000000">6</text>
</g>
<!-- 0&#45;&gt;6 -->
<g id="edge8" class="edge">
<title>0&#45;&gt;6</title>
<path fill="none" stroke="#000000" d="M33.6728,-526.6901C20.0471,-510.5408 0,-481.8745 0,-453 0,-453 0,-453 0,-192 0,-159.5856 30.3885,-133.7409 53.2299,-118.8932"/>
<polygon fill="#000000" stroke="#000000" points="55.1725,-121.8072 61.8383,-113.5721 51.4919,-115.8528 55.1725,-121.8072"/>
<text text-anchor="middle" x="18.5" y="-318.8" font-family="Times,serif" font-size="14.00" fill="#000000">3/5 &#45; 6</text>
</g>
<!-- 1&#45;&gt;2 -->
<g id="edge4" class="edge">
<title>1&#45;&gt;2</title>
<path fill="none" stroke="#000000" d="M134,-434.9735C134,-423.1918 134,-407.5607 134,-394.1581"/>
<polygon fill="#000000" stroke="#000000" points="137.5001,-394.0033 134,-384.0034 130.5001,-394.0034 137.5001,-394.0033"/>
<text text-anchor="middle" x="152.5" y="-405.8" font-family="Times,serif" font-size="14.00" fill="#000000">0/3 &#45; 1</text>
</g>
<!-- 3 -->
<g id="node4" class="node">
<title>3</title>
<ellipse fill="none" stroke="#000000" cx="171" cy="-279" rx="18" ry="18"/>
<text text-anchor="middle" x="171" y="-275.3" font-family="Times,serif" font-size="14.00" fill="#000000">3</text>
</g>
<!-- 1&#45;&gt;3 -->
<g id="edge3" class="edge">
<title>1&#45;&gt;3</title>
<path fill="none" stroke="#000000" d="M149.5603,-443.1811C158.3872,-436.7934 168.8641,-427.6768 175,-417 197.9,-377.1529 203.9943,-359.3659 192,-315 190.8528,-310.7567 189.0675,-306.5 187.0116,-302.4752"/>
<polygon fill="#000000" stroke="#000000" points="189.9291,-300.5285 181.896,-293.6205 183.8678,-304.0302 189.9291,-300.5285"/>
<text text-anchor="middle" x="216.5" y="-362.3" font-family="Times,serif" font-size="14.00" fill="#000000">0/1 &#45; 6</text>
</g>
<!-- 4 -->
<g id="node5" class="node">
<title>4</title>
<ellipse fill="none" stroke="#000000" cx="75" cy="-279" rx="18" ry="18"/>
<text text-anchor="middle" x="75" y="-275.3" font-family="Times,serif" font-size="14.00" fill="#000000">4</text>
</g>
<!-- 1&#45;&gt;4 -->
<g id="edge2" class="edge">
<title>1&#45;&gt;4</title>
<path fill="none" stroke="#000000" d="M119.2213,-442.5557C103.5875,-430.506 79.847,-409.0964 70,-384 60.2042,-359.0343 63.3023,-328.1317 67.719,-306.3349"/>
<polygon fill="#000000" stroke="#000000" points="71.1667,-306.9558 69.9424,-296.432 64.3367,-305.4223 71.1667,-306.9558"/>
<text text-anchor="middle" x="88.5" y="-362.3" font-family="Times,serif" font-size="14.00" fill="#000000">0/4 &#45; 1</text>
</g>
<!-- 5 -->
<g id="node6" class="node">
<title>5</title>
<ellipse fill="none" stroke="#000000" cx="243" cy="-192" rx="18" ry="18"/>
<text text-anchor="middle" x="243" y="-188.3" font-family="Times,serif" font-size="14.00" fill="#000000">5</text>
</g>
<!-- 1&#45;&gt;5 -->
<g id="edge5" class="edge">
<title>1&#45;&gt;5</title>
<path fill="none" stroke="#000000" d="M151.1076,-447.3749C175.5017,-438.3411 219.4835,-418.0692 239,-384 270.2817,-329.3928 249.1081,-305.866 252,-243 252.3064,-236.3404 252.8146,-234.6167 252,-228 251.6458,-225.1227 251.138,-222.1445 250.5416,-219.1899"/>
<polygon fill="#000000" stroke="#000000" points="253.9426,-218.3623 248.2668,-209.416 247.1248,-219.9491 253.9426,-218.3623"/>
<text text-anchor="middle" x="274.5" y="-318.8" font-family="Times,serif" font-size="14.00" fill="#000000">2/2 &#45; 3</text>
</g>
<!-- 2&#45;&gt;3 -->
<g id="edge11" class="edge">
<title>2&#45;&gt;3</title>
<path fill="none" stroke="#000000" d="M140.883,-348.9509C144.9273,-339.0178 150.1773,-326.2678 155,-315 156.4154,-311.693 157.9246,-308.2254 159.4292,-304.8027"/>
<polygon fill="#000000" stroke="#000000" points="162.7239,-306.0067 163.5761,-295.4462 156.3243,-303.1703 162.7239,-306.0067"/>
<text text-anchor="middle" x="173.5" y="-318.8" font-family="Times,serif" font-size="14.00" fill="#000000">4/5 &#45; 3</text>
</g>
<!-- 2&#45;&gt;4 -->
<g id="edge10" class="edge">
<title>2&#45;&gt;4</title>
<path fill="none" stroke="#000000" d="M123.2024,-351.4077C118.4607,-344.9086 112.8748,-337.1271 108,-330 101.9903,-321.2137 95.5895,-311.4275 90.0402,-302.7958"/>
<polygon fill="#000000" stroke="#000000" points="92.9512,-300.8512 84.6176,-294.3089 87.0524,-304.6202 92.9512,-300.8512"/>
<text text-anchor="middle" x="126.5" y="-318.8" font-family="Times,serif" font-size="14.00" fill="#000000">0/6 &#45; 1</text>
</g>
<!-- 3&#45;&gt;5 -->
<g id="edge13" class="edge">
<title>3&#45;&gt;5</title>
<path fill="none" stroke="#000000" d="M182.568,-265.0219C194.0096,-251.1967 211.6853,-229.8385 224.9701,-213.7861"/>
<polygon fill="#000000" stroke="#000000" points="227.7813,-215.8788 231.4607,-205.9434 222.3886,-211.4158 227.7813,-215.8788"/>
<text text-anchor="middle" x="229.5" y="-231.8" font-family="Times,serif" font-size="14.00" fill="#000000">1/1 &#45; 2</text>
</g>
<!-- 7 -->
<g id="node8" class="node">
<title>7</title>
<ellipse fill="none" stroke="#000000" cx="140" cy="-18" rx="18" ry="18"/>
<text text-anchor="middle" x="140" y="-14.3" font-family="Times,serif" font-size="14.00" fill="#000000">7</text>
</g>
<!-- 3&#45;&gt;7 -->
<g id="edge12" class="edge">
<title>3&#45;&gt;7</title>
<path fill="none" stroke="#000000" d="M164.65,-261.7921C156.3466,-238.286 142.242,-194.6388 137,-156 131.8806,-118.2654 134.2726,-74.2048 136.8235,-46.211"/>
<polygon fill="#000000" stroke="#000000" points="140.3355,-46.2591 137.8305,-35.9647 133.3691,-45.5743 140.3355,-46.2591"/>
<text text-anchor="middle" x="155.5" y="-144.8" font-family="Times,serif" font-size="14.00" fill="#000000">3/3 &#45; 4</text>
</g>
<!-- 4&#45;&gt;6 -->
<g id="edge1" class="edge">
<title>4&#45;&gt;6</title>
<path fill="none" stroke="#000000" d="M75.3154,-260.7078C75.8389,-230.3436 76.891,-169.3226 77.5113,-133.3464"/>
<polygon fill="#000000" stroke="#000000" points="81.0158,-133.106 77.6888,-123.0471 74.0169,-132.9852 81.0158,-133.106"/>
<text text-anchor="middle" x="94.5" y="-188.3" font-family="Times,serif" font-size="14.00" fill="#000000">0/5 &#45; 3</text>
</g>
<!-- 5&#45;&gt;6 -->
<g id="edge14" class="edge">
<title>5&#45;&gt;6</title>
<path fill="none" stroke="#000000" d="M229.2556,-180.3662C213.5355,-167.2148 188.605,-146.8684 178,-141 154.7969,-128.1602 126.1291,-118.3908 105.4454,-112.2911"/>
<polygon fill="#000000" stroke="#000000" points="106.2868,-108.8916 95.7104,-109.5166 104.3682,-115.6235 106.2868,-108.8916"/>
<text text-anchor="middle" x="217.5" y="-144.8" font-family="Times,serif" font-size="14.00" fill="#000000">0/6 &#45; 2</text>
</g>
<!-- 5&#45;&gt;7 -->
<g id="edge15" class="edge">
<title>5&#45;&gt;7</title>
<path fill="none" stroke="#000000" d="M243.7002,-173.9389C243.4895,-163.9051 242.2124,-151.3882 238,-141 220.8544,-98.7176 184.3343,-59.2251 161.0399,-36.8972"/>
<polygon fill="#000000" stroke="#000000" points="163.3813,-34.2946 153.6941,-30.0039 158.5912,-39.3991 163.3813,-34.2946"/>
<text text-anchor="middle" x="246.5" y="-101.3" font-family="Times,serif" font-size="14.00" fill="#000000">3/4 &#45; 4</text>
</g>
<!-- 6&#45;&gt;7 -->
<g id="edge6" class="edge">
<title>6&#45;&gt;7</title>
<path fill="none" stroke="#000000" d="M78.7036,-86.753C79.8548,-76.4206 82.6048,-63.6706 89,-54 95.3425,-44.4092 105.1872,-36.5848 114.5421,-30.7099"/>
<polygon fill="#000000" stroke="#000000" points="116.3294,-33.7194 123.2307,-25.6806 112.8226,-27.6611 116.3294,-33.7194"/>
<text text-anchor="middle" x="107.5" y="-57.8" font-family="Times,serif" font-size="14.00" fill="#000000">3/3 &#45; 4</text>
</g>
</g>
</svg>
