<?xml version="1.0" encoding="UTF-8" standalone="no"?>
<!DOCTYPE svg PUBLIC "-//W3C//DTD SVG 1.1//EN"
 "http://www.w3.org/Graphics/SVG/1.1/DTD/svg11.dtd">
<!-- Generated by graphviz version 2.40.1 (20161225.0304)
 -->
<!-- Title: g Pages: 1 -->
<svg width="203pt" height="566pt"
 viewBox="0.00 0.00 203.00 566.00" xmlns="http://www.w3.org/2000/svg" xmlns:xlink="http://www.w3.org/1999/xlink">
<g id="graph0" class="graph" transform="scale(1 1) rotate(0) translate(4 562)">
<title>g</title>
<polygon fill="#ffffff" stroke="transparent" points="-4,4 -4,-562 199,-562 199,4 -4,4"/>
<!-- 0 -->
<g id="node1" class="node">
<title>0</title>
<ellipse fill="none" stroke="#000000" cx="46" cy="-540" rx="18" ry="18"/>
<text text-anchor="middle" x="46" y="-536.3" font-family="Times,serif" font-size="14.00" fill="#000000">0</text>
</g>
<!-- 1 -->
<g id="node2" class="node">
<title>1</title>
<ellipse fill="none" stroke="#000000" cx="109" cy="-453" rx="18" ry="18"/>
<text text-anchor="middle" x="109" y="-449.3" font-family="Times,serif" font-size="14.00" fill="#000000">1</text>
</g>
<!-- 0&#45;&gt;1 -->
<g id="edge3" class="edge">
<title>0&#45;&gt;1</title>
<path fill="none" stroke="#000000" d="M56.6871,-525.2416C66.4619,-511.7431 81.0764,-491.5612 92.3758,-475.9572"/>
<polygon fill="#000000" stroke="#000000" points="95.2301,-477.983 98.2605,-467.8308 89.5605,-473.8774 95.2301,-477.983"/>
<text text-anchor="middle" x="84.5" y="-492.8" font-family="Times,serif" font-size="14.00" fill="#000000">2</text>
</g>
<!-- 2 -->
<g id="node3" class="node">
<title>2</title>
<ellipse fill="none" stroke="#000000" cx="109" cy="-366" rx="18" ry="18"/>
<text text-anchor="middle" x="109" y="-362.3" font-family="Times,serif" font-size="14.00" fill="#000000">2</text>
</g>
<!-- 0&#45;&gt;2 -->
<g id="edge4" class="edge">
<title>0&#45;&gt;2</title>
<path fill="none" stroke="#000000" d="M49.8326,-522.2115C54.6348,-501.0623 63.6319,-464.8706 75,-435 80.7157,-419.9816 88.5699,-403.8373 95.2895,-390.9435"/>
<polygon fill="#000000" stroke="#000000" points="98.5518,-392.2629 100.1526,-381.7897 92.37,-388.9787 98.5518,-392.2629"/>
<text text-anchor="middle" x="78.5" y="-449.3" font-family="Times,serif" font-size="14.00" fill="#000000">4</text>
</g>
<!-- 6 -->
<g id="node7" class="node">
<title>6</title>
<ellipse fill="none" stroke="#000000" cx="82" cy="-105" rx="18" ry="18"/>
<text text-anchor="middle" x="82" y="-101.3" font-family="Times,serif" font-size="14.00" fill="#000000">6</text>
</g>
<!-- 0&#45;&gt;6 -->
<g id="edge5" class="edge">
<title>0&#45;&gt;6</title>
<path fill="none" stroke="#000000" d="M33.6728,-526.6901C20.0471,-510.5408 0,-481.8745 0,-453 0,-453 0,-453 0,-192 0,-158.3197 32.9464,-132.3816 57.072,-117.903"/>
<polygon fill="#000000" stroke="#000000" points="58.8488,-120.9189 65.7994,-112.9227 55.3794,-114.8391 58.8488,-120.9189"/>
<text text-anchor="middle" x="3.5" y="-318.8" font-family="Times,serif" font-size="14.00" fill="#000000">5</text>
</g>
<!-- 1&#45;&gt;2 -->
<g id="edge8" class="edge">
<title>1&#45;&gt;2</title>
<path fill="none" stroke="#000000" d="M109,-434.9735C109,-423.1918 109,-407.5607 109,-394.1581"/>
<polygon fill="#000000" stroke="#000000" points="112.5001,-394.0033 109,-384.0034 105.5001,-394.0034 112.5001,-394.0033"/>
<text text-anchor="middle" x="112.5" y="-405.8" font-family="Times,serif" font-size="14.00" fill="#000000">3</text>
</g>
<!-- 3 -->
<g id="node4" class="node">
<title>3</title>
<ellipse fill="none" stroke="#000000" cx="147" cy="-279" rx="18" ry="18"/>
<text text-anchor="middle" x="147" y="-275.3" font-family="Times,serif" font-size="14.00" fill="#000000">3</text>
</g>
<!-- 1&#45;&gt;3 -->
<g id="edge9" class="edge">
<title>1&#45;&gt;3</title>
<path fill="none" stroke="#000000" d="M116.8326,-436.6745C123.0654,-422.9425 131.4685,-402.6234 136,-384 142.2279,-358.4047 144.93,-328.4549 146.1022,-307.1067"/>
<polygon fill="#000000" stroke="#000000" points="149.5997,-307.2393 146.5749,-297.0854 142.6075,-306.9094 149.5997,-307.2393"/>
<text text-anchor="middle" x="145.5" y="-362.3" font-family="Times,serif" font-size="14.00" fill="#000000">1</text>
</g>
<!-- 4 -->
<g id="node5" class="node">
<title>4</title>
<ellipse fill="none" stroke="#000000" cx="82" cy="-279" rx="18" ry="18"/>
<text text-anchor="middle" x="82" y="-275.3" font-family="Times,serif" font-size="14.00" fill="#000000">4</text>
</g>
<!-- 1&#45;&gt;4 -->
<g id="edge10" class="edge">
<title>1&#45;&gt;4</title>
<path fill="none" stroke="#000000" d="M99.0059,-437.8776C90.7289,-424.3878 79.6063,-403.7693 75,-384 69.0062,-358.2759 72.0149,-328.1186 75.7695,-306.7398"/>
<polygon fill="#000000" stroke="#000000" points="79.245,-307.2004 77.6965,-296.7193 72.3709,-305.8783 79.245,-307.2004"/>
<text text-anchor="middle" x="78.5" y="-362.3" font-family="Times,serif" font-size="14.00" fill="#000000">4</text>
</g>
<!-- 5 -->
<g id="node6" class="node">
<title>5</title>
<ellipse fill="none" stroke="#000000" cx="177" cy="-192" rx="18" ry="18"/>
<text text-anchor="middle" x="177" y="-188.3" font-family="Times,serif" font-size="14.00" fill="#000000">5</text>
</g>
<!-- 1&#45;&gt;5 -->
<g id="edge11" class="edge">
<title>1&#45;&gt;5</title>
<path fill="none" stroke="#000000" d="M122.6763,-440.7391C129.2669,-434.2271 136.8403,-425.7689 142,-417 149.8402,-403.6755 148.7379,-398.8609 153,-384 163.9659,-345.7643 168.7368,-336.4274 174,-297 177.4316,-271.2936 177.9764,-241.7453 177.7827,-220.5564"/>
<polygon fill="#000000" stroke="#000000" points="181.2785,-220.2477 177.6255,-210.3026 174.2793,-220.3551 181.2785,-220.2477"/>
<text text-anchor="middle" x="174.5" y="-318.8" font-family="Times,serif" font-size="14.00" fill="#000000">2</text>
</g>
<!-- 2&#45;&gt;3 -->
<g id="edge12" class="edge">
<title>2&#45;&gt;3</title>
<path fill="none" stroke="#000000" d="M116.3268,-349.2255C121.794,-336.7084 129.3667,-319.371 135.6197,-305.055"/>
<polygon fill="#000000" stroke="#000000" points="138.9004,-306.2879 139.6957,-295.723 132.4856,-303.486 138.9004,-306.2879"/>
<text text-anchor="middle" x="133.5" y="-318.8" font-family="Times,serif" font-size="14.00" fill="#000000">5</text>
</g>
<!-- 2&#45;&gt;4 -->
<g id="edge13" class="edge">
<title>2&#45;&gt;4</title>
<path fill="none" stroke="#000000" d="M103.5361,-348.3943C99.7787,-336.287 94.7155,-319.972 90.4424,-306.2034"/>
<polygon fill="#000000" stroke="#000000" points="93.6704,-304.7959 87.3636,-296.2827 86.9849,-306.8707 93.6704,-304.7959"/>
<text text-anchor="middle" x="100.5" y="-318.8" font-family="Times,serif" font-size="14.00" fill="#000000">6</text>
</g>
<!-- 3&#45;&gt;5 -->
<g id="edge7" class="edge">
<title>3&#45;&gt;5</title>
<path fill="none" stroke="#000000" d="M152.927,-261.8116C157.1592,-249.5383 162.9349,-232.7887 167.7681,-218.7725"/>
<polygon fill="#000000" stroke="#000000" points="171.1341,-219.7474 171.0853,-209.1527 164.5165,-217.4654 171.1341,-219.7474"/>
<text text-anchor="middle" x="166.5" y="-231.8" font-family="Times,serif" font-size="14.00" fill="#000000">1</text>
</g>
<!-- 7 -->
<g id="node8" class="node">
<title>7</title>
<ellipse fill="none" stroke="#000000" cx="128" cy="-18" rx="18" ry="18"/>
<text text-anchor="middle" x="128" y="-14.3" font-family="Times,serif" font-size="14.00" fill="#000000">7</text>
</g>
<!-- 3&#45;&gt;7 -->
<g id="edge6" class="edge">
<title>3&#45;&gt;7</title>
<path fill="none" stroke="#000000" d="M144.0624,-261.1366C140.2766,-237.2572 133.8442,-193.5772 131,-156 128.1419,-118.2393 127.6692,-74.5138 127.726,-46.5754"/>
<polygon fill="#000000" stroke="#000000" points="131.227,-46.3507 127.7723,-36.335 124.227,-46.319 131.227,-46.3507"/>
<text text-anchor="middle" x="134.5" y="-144.8" font-family="Times,serif" font-size="14.00" fill="#000000">3</text>
</g>
<!-- 4&#45;&gt;6 -->
<g id="edge1" class="edge">
<title>4&#45;&gt;6</title>
<path fill="none" stroke="#000000" d="M82,-260.7078C82,-230.3436 82,-169.3226 82,-133.3464"/>
<polygon fill="#000000" stroke="#000000" points="85.5001,-133.0471 82,-123.0471 78.5001,-133.0471 85.5001,-133.0471"/>
<text text-anchor="middle" x="85.5" y="-188.3" font-family="Times,serif" font-size="14.00" fill="#000000">5</text>
</g>
<!-- 5&#45;&gt;6 -->
<g id="edge14" class="edge">
<title>5&#45;&gt;6</title>
<path fill="none" stroke="#000000" d="M166.6035,-176.6874C158.8979,-165.9806 147.7362,-151.7342 136,-141 127.1791,-132.9322 116.3949,-125.3684 106.7897,-119.2766"/>
<polygon fill="#000000" stroke="#000000" points="108.3998,-116.1584 98.0444,-113.9185 104.7428,-122.1272 108.3998,-116.1584"/>
<text text-anchor="middle" x="152.5" y="-144.8" font-family="Times,serif" font-size="14.00" fill="#000000">6</text>
</g>
<!-- 5&#45;&gt;7 -->
<g id="edge15" class="edge">
<title>5&#45;&gt;7</title>
<path fill="none" stroke="#000000" d="M173.2582,-174.378C167.4839,-147.9521 155.6322,-96.61 142,-54 140.9783,-50.8065 139.8216,-47.4871 138.6217,-44.2129"/>
<polygon fill="#000000" stroke="#000000" points="141.824,-42.7877 134.9839,-34.6968 135.2855,-45.2873 141.824,-42.7877"/>
<text text-anchor="middle" x="164.5" y="-101.3" font-family="Times,serif" font-size="14.00" fill="#000000">4</text>
</g>
<!-- 6&#45;&gt;7 -->
<g id="edge2" class="edge">
<title>6&#45;&gt;7</title>
<path fill="none" stroke="#000000" d="M89.8068,-88.3091C94.5931,-78.274 100.9453,-65.299 107,-54 109.0377,-50.1973 111.2654,-46.2131 113.4841,-42.3382"/>
<polygon fill="#000000" stroke="#000000" points="116.5459,-44.0354 118.5508,-33.632 110.4958,-40.5144 116.5459,-44.0354"/>
<text text-anchor="middle" x="110.5" y="-57.8" font-family="Times,serif" font-size="14.00" fill="#000000">3</text>
</g>
</g>
</svg>
