<?xml version="1.0" encoding="UTF-8" standalone="no"?>
<!DOCTYPE svg PUBLIC "-//W3C//DTD SVG 1.1//EN"
 "http://www.w3.org/Graphics/SVG/1.1/DTD/svg11.dtd">
<!-- Generated by graphviz version 2.40.1 (20161225.0304)
 -->
<!-- Title: g Pages: 1 -->
<svg width="159pt" height="392pt"
 viewBox="0.00 0.00 159.30 392.00" xmlns="http://www.w3.org/2000/svg" xmlns:xlink="http://www.w3.org/1999/xlink">
<g id="graph0" class="graph" transform="scale(1 1) rotate(0) translate(4 388)">
<title>g</title>
<polygon fill="#ffffff" stroke="transparent" points="-4,4 -4,-388 155.3006,-388 155.3006,4 -4,4"/>
<!-- 0 -->
<g id="node1" class="node">
<title>0</title>
<ellipse fill="none" stroke="#000000" cx="69.3006" cy="-366" rx="18" ry="18"/>
<text text-anchor="middle" x="69.3006" y="-362.3" font-family="Times,serif" font-size="14.00" fill="#000000">0</text>
</g>
<!-- 1 -->
<g id="node2" class="node">
<title>1</title>
<ellipse fill="none" stroke="#000000" cx="36.3006" cy="-192" rx="18" ry="18"/>
<text text-anchor="middle" x="36.3006" y="-188.3" font-family="Times,serif" font-size="14.00" fill="#000000">1</text>
</g>
<!-- 0&#45;&gt;1 -->
<g id="edge3" class="edge">
<title>0&#45;&gt;1</title>
<path fill="none" stroke="#000000" d="M59.3064,-350.8776C51.0295,-337.3878 39.9068,-316.7693 35.3006,-297 29.3552,-271.4836 30.4005,-241.524 32.4611,-220.1522"/>
<polygon fill="#000000" stroke="#000000" points="35.9504,-220.4406 33.5637,-210.1181 28.9923,-219.676 35.9504,-220.4406"/>
<text text-anchor="middle" x="38.8006" y="-275.3" font-family="Times,serif" font-size="14.00" fill="#000000">7</text>
</g>
<!-- 2 -->
<g id="node3" class="node">
<title>2</title>
<ellipse fill="none" stroke="#000000" cx="133.3006" cy="-192" rx="18" ry="18"/>
<text text-anchor="middle" x="133.3006" y="-188.3" font-family="Times,serif" font-size="14.00" fill="#000000">2</text>
</g>
<!-- 0&#45;&gt;2 -->
<g id="edge1" class="edge">
<title>0&#45;&gt;2</title>
<path fill="none" stroke="#000000" d="M77.6466,-350.0051C80.7868,-343.8104 84.3169,-336.6265 87.3006,-330 104.412,-291.9962 110.085,-282.848 122.3006,-243 124.5638,-235.6174 126.5395,-227.4961 128.1682,-219.9468"/>
<polygon fill="#000000" stroke="#000000" points="131.6013,-220.6274 130.1685,-210.1299 124.7423,-219.2297 131.6013,-220.6274"/>
<text text-anchor="middle" x="119.8006" y="-275.3" font-family="Times,serif" font-size="14.00" fill="#000000">8</text>
</g>
<!-- 3 -->
<g id="node4" class="node">
<title>3</title>
<ellipse fill="none" stroke="#000000" cx="69.3006" cy="-279" rx="18" ry="18"/>
<text text-anchor="middle" x="69.3006" y="-275.3" font-family="Times,serif" font-size="14.00" fill="#000000">3</text>
</g>
<!-- 0&#45;&gt;3 -->
<g id="edge2" class="edge">
<title>0&#45;&gt;3</title>
<path fill="none" stroke="#000000" d="M69.3006,-347.9735C69.3006,-336.1918 69.3006,-320.5607 69.3006,-307.1581"/>
<polygon fill="#000000" stroke="#000000" points="72.8007,-307.0033 69.3006,-297.0034 65.8007,-307.0034 72.8007,-307.0033"/>
<text text-anchor="middle" x="76.3006" y="-318.8" font-family="Times,serif" font-size="14.00" fill="#000000">10</text>
</g>
<!-- 4 -->
<g id="node5" class="node">
<title>4</title>
<ellipse fill="none" stroke="#000000" cx="88.3006" cy="-105" rx="18" ry="18"/>
<text text-anchor="middle" x="88.3006" y="-101.3" font-family="Times,serif" font-size="14.00" fill="#000000">4</text>
</g>
<!-- 1&#45;&gt;4 -->
<g id="edge5" class="edge">
<title>1&#45;&gt;4</title>
<path fill="none" stroke="#000000" d="M45.5971,-176.4461C53.387,-163.4132 64.6458,-144.5762 73.6474,-129.5159"/>
<polygon fill="#000000" stroke="#000000" points="76.783,-131.0918 78.9092,-120.7125 70.7744,-127.5005 76.783,-131.0918"/>
<text text-anchor="middle" x="68.8006" y="-144.8" font-family="Times,serif" font-size="14.00" fill="#000000">1</text>
</g>
<!-- 5 -->
<g id="node6" class="node">
<title>5</title>
<ellipse fill="none" stroke="#000000" cx="36.3006" cy="-18" rx="18" ry="18"/>
<text text-anchor="middle" x="36.3006" y="-14.3" font-family="Times,serif" font-size="14.00" fill="#000000">5</text>
</g>
<!-- 1&#45;&gt;5 -->
<g id="edge6" class="edge">
<title>1&#45;&gt;5</title>
<path fill="none" stroke="#000000" d="M36.3006,-173.7078C36.3006,-143.3436 36.3006,-82.3226 36.3006,-46.3464"/>
<polygon fill="#000000" stroke="#000000" points="39.8007,-46.0471 36.3006,-36.0471 32.8007,-46.0471 39.8007,-46.0471"/>
<text text-anchor="middle" x="43.3006" y="-101.3" font-family="Times,serif" font-size="14.00" fill="#000000">21</text>
</g>
<!-- 2&#45;&gt;4 -->
<g id="edge4" class="edge">
<title>2&#45;&gt;4</title>
<path fill="none" stroke="#000000" d="M124.8364,-175.636C118.195,-162.7959 108.8371,-144.7039 101.2547,-130.0446"/>
<polygon fill="#000000" stroke="#000000" points="104.2778,-128.2709 96.5747,-120.9967 98.0603,-131.4869 104.2778,-128.2709"/>
<text text-anchor="middle" x="120.3006" y="-144.8" font-family="Times,serif" font-size="14.00" fill="#000000">12</text>
</g>
<!-- 3&#45;&gt;1 -->
<g id="edge10" class="edge">
<title>3&#45;&gt;1</title>
<path fill="none" stroke="#000000" d="M62.7808,-261.8116C58.0952,-249.4586 51.6896,-232.571 46.3522,-218.4998"/>
<polygon fill="#000000" stroke="#000000" points="49.5136,-216.9653 42.6945,-208.8567 42.9686,-219.448 49.5136,-216.9653"/>
<text text-anchor="middle" x="61.3006" y="-231.8" font-family="Times,serif" font-size="14.00" fill="#000000">14</text>
</g>
<!-- 3&#45;&gt;2 -->
<g id="edge9" class="edge">
<title>3&#45;&gt;2</title>
<path fill="none" stroke="#000000" d="M82.0105,-265.7766C88.1188,-259.1593 95.3801,-250.8939 101.3006,-243 107.4723,-234.7711 113.6276,-225.3326 118.8672,-216.8304"/>
<polygon fill="#000000" stroke="#000000" points="121.9813,-218.4441 124.1507,-208.0737 115.9877,-214.8278 121.9813,-218.4441"/>
<text text-anchor="middle" x="114.8006" y="-231.8" font-family="Times,serif" font-size="14.00" fill="#000000">2</text>
</g>
<!-- 3&#45;&gt;4 -->
<g id="edge8" class="edge">
<title>3&#45;&gt;4</title>
<path fill="none" stroke="#000000" d="M71.2623,-261.0343C74.5619,-230.8176 81.2473,-169.5928 85.1917,-133.4709"/>
<polygon fill="#000000" stroke="#000000" points="88.7147,-133.4495 86.321,-123.1286 81.7561,-132.6896 88.7147,-133.4495"/>
<text text-anchor="middle" x="83.8006" y="-188.3" font-family="Times,serif" font-size="14.00" fill="#000000">5</text>
</g>
<!-- 3&#45;&gt;5 -->
<g id="edge11" class="edge">
<title>3&#45;&gt;5</title>
<path fill="none" stroke="#000000" d="M54.8871,-267.8934C40.2107,-255.5826 18.3644,-234.2364 9.3006,-210 -11.8236,-153.5144 9.8424,-82.0553 24.7527,-44.2449"/>
<polygon fill="#000000" stroke="#000000" points="28.1872,-45.0936 28.7379,-34.5131 21.7093,-42.4409 28.1872,-45.0936"/>
<text text-anchor="middle" x="4.8006" y="-144.8" font-family="Times,serif" font-size="14.00" fill="#000000">3</text>
</g>
<!-- 4&#45;&gt;5 -->
<g id="edge7" class="edge">
<title>4&#45;&gt;5</title>
<path fill="none" stroke="#000000" d="M79.004,-89.4461C71.2142,-76.4132 59.9553,-57.5762 50.9538,-42.5159"/>
<polygon fill="#000000" stroke="#000000" points="53.8267,-40.5005 45.692,-33.7125 47.8182,-44.0918 53.8267,-40.5005"/>
<text text-anchor="middle" x="72.3006" y="-57.8" font-family="Times,serif" font-size="14.00" fill="#000000">14</text>
</g>
</g>
</svg>
