<?xml version="1.0" encoding="UTF-8" standalone="no"?>
<!DOCTYPE svg PUBLIC "-//W3C//DTD SVG 1.1//EN"
 "http://www.w3.org/Graphics/SVG/1.1/DTD/svg11.dtd">
<!-- Generated by graphviz version 2.40.1 (20161225.0304)
 -->
<!-- Title: g Pages: 1 -->
<svg width="123pt" height="305pt"
 viewBox="0.00 0.00 123.00 305.00" xmlns="http://www.w3.org/2000/svg" xmlns:xlink="http://www.w3.org/1999/xlink">
<g id="graph0" class="graph" transform="scale(1 1) rotate(0) translate(4 301)">
<title>g</title>
<polygon fill="#ffffff" stroke="transparent" points="-4,4 -4,-301 119,-301 119,4 -4,4"/>
<!-- 0 -->
<g id="node1" class="node">
<title>0</title>
<ellipse fill="none" stroke="#000000" cx="61" cy="-279" rx="18" ry="18"/>
<text text-anchor="middle" x="61" y="-275.3" font-family="Times,serif" font-size="14.00" fill="#000000">0</text>
</g>
<!-- 1 -->
<g id="node2" class="node">
<title>1</title>
<ellipse fill="none" stroke="#000000" cx="33" cy="-192" rx="18" ry="18"/>
<text text-anchor="middle" x="33" y="-188.3" font-family="Times,serif" font-size="14.00" fill="#000000">1</text>
</g>
<!-- 0&#45;&gt;1 -->
<g id="edge2" class="edge">
<title>0&#45;&gt;1</title>
<path fill="none" stroke="#000000" d="M48.8118,-265.2881C43.918,-258.952 38.7847,-251.0545 36,-243 33.5574,-235.935 32.3979,-227.9942 31.9415,-220.5199"/>
<polygon fill="#000000" stroke="#000000" points="35.4379,-220.3193 31.7039,-210.4042 28.4398,-220.4837 35.4379,-220.3193"/>
<text text-anchor="middle" x="54.5" y="-231.8" font-family="Times,serif" font-size="14.00" fill="#000000">2/2 &#45; 2</text>
</g>
<!-- 2 -->
<g id="node3" class="node">
<title>2</title>
<ellipse fill="none" stroke="#000000" cx="75" cy="-105" rx="18" ry="18"/>
<text text-anchor="middle" x="75" y="-101.3" font-family="Times,serif" font-size="14.00" fill="#000000">2</text>
</g>
<!-- 0&#45;&gt;2 -->
<g id="edge3" class="edge">
<title>0&#45;&gt;2</title>
<path fill="none" stroke="#000000" d="M67.8362,-262.0618C69.9079,-256.1328 71.9197,-249.3653 73,-243 79.3711,-205.4615 78.6034,-161.3536 77.1046,-133.2956"/>
<polygon fill="#000000" stroke="#000000" points="80.5807,-132.7941 76.484,-123.0234 73.5935,-133.2163 80.5807,-132.7941"/>
<text text-anchor="middle" x="96.5" y="-188.3" font-family="Times,serif" font-size="14.00" fill="#000000">4/4 &#45; 5</text>
</g>
<!-- 1&#45;&gt;2 -->
<g id="edge4" class="edge">
<title>1&#45;&gt;2</title>
<path fill="none" stroke="#000000" d="M30.8365,-173.7169C30.4176,-163.6137 31.219,-151.1012 36,-141 39.6033,-133.3871 45.6055,-126.621 51.8341,-121.0676"/>
<polygon fill="#000000" stroke="#000000" points="54.115,-123.7243 59.6813,-114.7095 49.7082,-118.2855 54.115,-123.7243"/>
<text text-anchor="middle" x="54.5" y="-144.8" font-family="Times,serif" font-size="14.00" fill="#000000">1/3 &#45; 1</text>
</g>
<!-- 3 -->
<g id="node4" class="node">
<title>3</title>
<ellipse fill="none" stroke="#000000" cx="18" cy="-18" rx="18" ry="18"/>
<text text-anchor="middle" x="18" y="-14.3" font-family="Times,serif" font-size="14.00" fill="#000000">3</text>
</g>
<!-- 1&#45;&gt;3 -->
<g id="edge5" class="edge">
<title>1&#45;&gt;3</title>
<path fill="none" stroke="#000000" d="M26.0844,-175.3378C20.7665,-161.5761 13.8604,-141.3874 11,-123 6.964,-97.0552 9.6658,-67.1483 12.8122,-45.905"/>
<polygon fill="#000000" stroke="#000000" points="16.2824,-46.3695 14.4148,-35.9406 9.3712,-45.258 16.2824,-46.3695"/>
<text text-anchor="middle" x="29.5" y="-101.3" font-family="Times,serif" font-size="14.00" fill="#000000">1/1 &#45; 6</text>
</g>
<!-- 2&#45;&gt;3 -->
<g id="edge1" class="edge">
<title>2&#45;&gt;3</title>
<path fill="none" stroke="#000000" d="M65.0714,-89.8458C56.3791,-76.5787 43.6047,-57.0809 33.5561,-41.7435"/>
<polygon fill="#000000" stroke="#000000" points="36.414,-39.719 28.0061,-33.2725 30.5588,-43.5552 36.414,-39.719"/>
<text text-anchor="middle" x="67.5" y="-57.8" font-family="Times,serif" font-size="14.00" fill="#000000">5/5 &#45; 3</text>
</g>
</g>
</svg>
