<?xml version="1.0" encoding="UTF-8" standalone="no"?>
<!DOCTYPE svg PUBLIC "-//W3C//DTD SVG 1.1//EN"
 "http://www.w3.org/Graphics/SVG/1.1/DTD/svg11.dtd">
<!-- Generated by graphviz version 2.40.1 (20161225.0304)
 -->
<!-- Title: g Pages: 1 -->
<svg width="86pt" height="305pt"
 viewBox="0.00 0.00 86.00 305.00" xmlns="http://www.w3.org/2000/svg" xmlns:xlink="http://www.w3.org/1999/xlink">
<g id="graph0" class="graph" transform="scale(1 1) rotate(0) translate(4 301)">
<title>g</title>
<polygon fill="#ffffff" stroke="transparent" points="-4,4 -4,-301 82,-301 82,4 -4,4"/>
<!-- 0 -->
<g id="node1" class="node">
<title>0</title>
<ellipse fill="none" stroke="#000000" cx="58" cy="-279" rx="18" ry="18"/>
<text text-anchor="middle" x="58" y="-275.3" font-family="Times,serif" font-size="14.00" fill="#000000">0</text>
</g>
<!-- 1 -->
<g id="node2" class="node">
<title>1</title>
<ellipse fill="none" stroke="#000000" cx="18" cy="-192" rx="18" ry="18"/>
<text text-anchor="middle" x="18" y="-188.3" font-family="Times,serif" font-size="14.00" fill="#000000">1</text>
</g>
<!-- 0&#45;&gt;1 -->
<g id="edge1" class="edge">
<title>0&#45;&gt;1</title>
<path fill="none" stroke="#000000" d="M50.4763,-262.636C44.7026,-250.0781 36.6192,-232.4967 29.9615,-218.0162"/>
<polygon fill="#000000" stroke="#000000" points="32.9833,-216.2101 25.626,-208.5865 26.6233,-219.1342 32.9833,-216.2101"/>
<text text-anchor="middle" x="44.5" y="-231.8" font-family="Times,serif" font-size="14.00" fill="#000000">2</text>
</g>
<!-- 2 -->
<g id="node3" class="node">
<title>2</title>
<ellipse fill="none" stroke="#000000" cx="60" cy="-105" rx="18" ry="18"/>
<text text-anchor="middle" x="60" y="-101.3" font-family="Times,serif" font-size="14.00" fill="#000000">2</text>
</g>
<!-- 0&#45;&gt;2 -->
<g id="edge2" class="edge">
<title>0&#45;&gt;2</title>
<path fill="none" stroke="#000000" d="M58.2103,-260.7078C58.5593,-230.3436 59.2607,-169.3226 59.6742,-133.3464"/>
<polygon fill="#000000" stroke="#000000" points="63.1773,-133.0867 59.7926,-123.0471 56.1778,-133.0062 63.1773,-133.0867"/>
<text text-anchor="middle" x="62.5" y="-188.3" font-family="Times,serif" font-size="14.00" fill="#000000">4</text>
</g>
<!-- 1&#45;&gt;2 -->
<g id="edge4" class="edge">
<title>1&#45;&gt;2</title>
<path fill="none" stroke="#000000" d="M25.8999,-175.636C32.0596,-162.8766 40.7229,-144.9312 47.7758,-130.3216"/>
<polygon fill="#000000" stroke="#000000" points="50.9399,-131.8178 52.1355,-121.2907 44.6361,-128.7745 50.9399,-131.8178"/>
<text text-anchor="middle" x="45.5" y="-144.8" font-family="Times,serif" font-size="14.00" fill="#000000">3</text>
</g>
<!-- 3 -->
<g id="node4" class="node">
<title>3</title>
<ellipse fill="none" stroke="#000000" cx="33" cy="-18" rx="18" ry="18"/>
<text text-anchor="middle" x="33" y="-14.3" font-family="Times,serif" font-size="14.00" fill="#000000">3</text>
</g>
<!-- 1&#45;&gt;3 -->
<g id="edge5" class="edge">
<title>1&#45;&gt;3</title>
<path fill="none" stroke="#000000" d="M19.2492,-173.7786C20.7178,-152.8283 23.2993,-117.4113 26,-87 27.1862,-73.6423 28.6652,-58.8473 29.9577,-46.3939"/>
<polygon fill="#000000" stroke="#000000" points="33.4701,-46.4587 31.0335,-36.1479 26.5084,-45.7277 33.4701,-46.4587"/>
<text text-anchor="middle" x="29.5" y="-101.3" font-family="Times,serif" font-size="14.00" fill="#000000">1</text>
</g>
<!-- 2&#45;&gt;3 -->
<g id="edge3" class="edge">
<title>2&#45;&gt;3</title>
<path fill="none" stroke="#000000" d="M54.5361,-87.3943C50.7787,-75.287 45.7155,-58.972 41.4424,-45.2034"/>
<polygon fill="#000000" stroke="#000000" points="44.6704,-43.7959 38.3636,-35.2827 37.9849,-45.8707 44.6704,-43.7959"/>
<text text-anchor="middle" x="52.5" y="-57.8" font-family="Times,serif" font-size="14.00" fill="#000000">5</text>
</g>
</g>
</svg>
