<?xml version="1.0" encoding="UTF-8" standalone="no"?>
<!DOCTYPE svg PUBLIC "-//W3C//DTD SVG 1.1//EN"
 "http://www.w3.org/Graphics/SVG/1.1/DTD/svg11.dtd">
<!-- Generated by graphviz version 2.40.1 (20161225.0304)
 -->
<!-- Title: g Pages: 1 -->
<svg width="1576pt" height="740pt"
 viewBox="0.00 0.00 1576.00 740.00" xmlns="http://www.w3.org/2000/svg" xmlns:xlink="http://www.w3.org/1999/xlink">
<g id="graph0" class="graph" transform="scale(1 1) rotate(0) translate(4 736)">
<title>g</title>
<polygon fill="#ffffff" stroke="transparent" points="-4,4 -4,-736 1572,-736 1572,4 -4,4"/>
<!-- 0 -->
<g id="node1" class="node">
<title>0</title>
<ellipse fill="none" stroke="#000000" cx="948" cy="-627" rx="18" ry="18"/>
<text text-anchor="middle" x="948" y="-623.3" font-family="Times,serif" font-size="14.00" fill="#000000">0</text>
</g>
<!-- 1 -->
<g id="node2" class="node">
<title>1</title>
<ellipse fill="none" stroke="#000000" cx="784" cy="-540" rx="18" ry="18"/>
<text text-anchor="middle" x="784" y="-536.3" font-family="Times,serif" font-size="14.00" fill="#000000">1</text>
</g>
<!-- 0&#45;&gt;1 -->
<g id="edge27" class="edge">
<title>0&#45;&gt;1</title>
<path fill="none" stroke="#000000" d="M931.9764,-618.4997C903.3915,-603.3357 843.4059,-571.5141 809.2369,-553.3879"/>
<polygon fill="#000000" stroke="#000000" points="810.8058,-550.2582 800.3316,-548.6637 807.5253,-556.442 810.8058,-550.2582"/>
<text text-anchor="middle" x="897.5" y="-579.8" font-family="Times,serif" font-size="14.00" fill="#000000">55/1211</text>
</g>
<!-- 2 -->
<g id="node3" class="node">
<title>2</title>
<ellipse fill="none" stroke="#000000" cx="435" cy="-453" rx="18" ry="18"/>
<text text-anchor="middle" x="435" y="-449.3" font-family="Times,serif" font-size="14.00" fill="#000000">2</text>
</g>
<!-- 0&#45;&gt;2 -->
<g id="edge25" class="edge">
<title>0&#45;&gt;2</title>
<path fill="none" stroke="#000000" d="M929.7752,-626.4254C839.2259,-623.4907 440.005,-609.5865 388,-591 353.2933,-578.5959 325.4318,-554.9229 342,-522 349.4454,-507.2052 385.8313,-482.8721 410.8203,-467.4073"/>
<polygon fill="#000000" stroke="#000000" points="412.7265,-470.3443 419.4365,-462.1451 409.078,-464.3703 412.7265,-470.3443"/>
<text text-anchor="middle" x="361" y="-536.3" font-family="Times,serif" font-size="14.00" fill="#000000">0/1211</text>
</g>
<!-- 3 -->
<g id="node4" class="node">
<title>3</title>
<ellipse fill="none" stroke="#000000" cx="1026" cy="-18" rx="18" ry="18"/>
<text text-anchor="middle" x="1026" y="-14.3" font-family="Times,serif" font-size="14.00" fill="#000000">3</text>
</g>
<!-- 0&#45;&gt;3 -->
<g id="edge26" class="edge">
<title>0&#45;&gt;3</title>
<path fill="none" stroke="#000000" d="M966.1364,-626.0524C1031.209,-622.5279 1252.6907,-609.4246 1321,-591 1373.4181,-576.8616 1432,-594.2914 1432,-540 1432,-540 1432,-540 1432,-409.5 1432,-372.8387 1415.2896,-366.2777 1410,-330 1406.7289,-307.5662 1409,-301.671 1409,-279 1409,-279 1409,-279 1409,-105 1409,-68.5896 1142.3841,-32.3737 1054.0495,-21.3739"/>
<polygon fill="#000000" stroke="#000000" points="1054.3121,-17.8799 1043.9592,-20.131 1053.4562,-24.8274 1054.3121,-17.8799"/>
<text text-anchor="middle" x="1429" y="-318.8" font-family="Times,serif" font-size="14.00" fill="#000000">0/1211</text>
</g>
<!-- 4 -->
<g id="node5" class="node">
<title>4</title>
<ellipse fill="none" stroke="#000000" cx="648" cy="-105" rx="18" ry="18"/>
<text text-anchor="middle" x="648" y="-101.3" font-family="Times,serif" font-size="14.00" fill="#000000">4</text>
</g>
<!-- 0&#45;&gt;4 -->
<g id="edge29" class="edge">
<title>0&#45;&gt;4</title>
<path fill="none" stroke="#000000" d="M929.8126,-626.6618C829.208,-624.7112 340.0245,-614.1672 191,-591 104.1799,-577.503 0,-627.863 0,-540 0,-540 0,-540 0,-409.5 0,-298.5506 120.5043,-332.5549 186,-243 205.8463,-215.8634 194.9894,-199.4127 217,-174 234.9205,-153.3096 243.0073,-149.5798 269,-141 321.6819,-123.6105 462.8271,-128.8076 518,-123 553.2507,-119.2895 593.665,-113.4416 619.9499,-109.4242"/>
<polygon fill="#000000" stroke="#000000" points="620.6107,-112.8638 629.9593,-107.8784 619.5422,-105.9458 620.6107,-112.8638"/>
<text text-anchor="middle" x="43.5" y="-362.3" font-family="Times,serif" font-size="14.00" fill="#000000">55/1211</text>
</g>
<!-- 5 -->
<g id="node6" class="node">
<title>5</title>
<ellipse fill="none" stroke="#000000" cx="716" cy="-192" rx="18" ry="18"/>
<text text-anchor="middle" x="716" y="-188.3" font-family="Times,serif" font-size="14.00" fill="#000000">5</text>
</g>
<!-- 0&#45;&gt;5 -->
<g id="edge30" class="edge">
<title>0&#45;&gt;5</title>
<path fill="none" stroke="#000000" d="M965.8869,-624.8853C1016.0968,-617.9392 1159.1584,-591.0326 1228,-504 1242.5071,-485.6595 1263.8802,-320.2881 1266,-297 1267.4504,-281.0659 1276.9236,-272.6908 1266,-261 1245.8512,-239.4361 1030.065,-248.1188 1001,-243 977.3111,-238.828 972.489,-233.1803 949,-228 875.7015,-211.8347 787.8563,-200.3562 743.9161,-195.1447"/>
<polygon fill="#000000" stroke="#000000" points="744.3138,-191.6675 733.9754,-193.9844 743.5021,-198.6203 744.3138,-191.6675"/>
<text text-anchor="middle" x="1273.5" y="-405.8" font-family="Times,serif" font-size="14.00" fill="#000000">43/1211</text>
</g>
<!-- 6 -->
<g id="node7" class="node">
<title>6</title>
<ellipse fill="none" stroke="#000000" cx="467" cy="-279" rx="18" ry="18"/>
<text text-anchor="middle" x="467" y="-275.3" font-family="Times,serif" font-size="14.00" fill="#000000">6</text>
</g>
<!-- 0&#45;&gt;6 -->
<g id="edge31" class="edge">
<title>0&#45;&gt;6</title>
<path fill="none" stroke="#000000" d="M929.93,-626.6491C819.8809,-624.4458 243.4724,-611.9331 213,-591 111.3728,-521.1867 131.5124,-371.6961 241,-315 321.432,-273.3498 359.7594,-330.2803 444,-297 444.3183,-296.8742 444.6358,-296.7426 444.9524,-296.6055"/>
<polygon fill="#000000" stroke="#000000" points="446.8598,-299.544 453.6968,-291.4505 443.3049,-293.5138 446.8598,-299.544"/>
<text text-anchor="middle" x="172.5" y="-449.3" font-family="Times,serif" font-size="14.00" fill="#000000">38/1211</text>
</g>
<!-- 7 -->
<g id="node8" class="node">
<title>7</title>
<ellipse fill="none" stroke="#000000" cx="900" cy="-366" rx="18" ry="18"/>
<text text-anchor="middle" x="900" y="-362.3" font-family="Times,serif" font-size="14.00" fill="#000000">7</text>
</g>
<!-- 0&#45;&gt;7 -->
<g id="edge28" class="edge">
<title>0&#45;&gt;7</title>
<path fill="none" stroke="#000000" d="M949.711,-608.8264C952.3935,-574.2177 955.6159,-496.7917 938,-435 933.3839,-418.808 924.4188,-402.2313 916.3554,-389.385"/>
<polygon fill="#000000" stroke="#000000" points="919.1154,-387.2099 910.7185,-380.749 913.2536,-391.0361 919.1154,-387.2099"/>
<text text-anchor="middle" x="971.5" y="-492.8" font-family="Times,serif" font-size="14.00" fill="#000000">12/1211</text>
</g>
<!-- 1&#45;&gt;0 -->
<g id="edge46" class="edge">
<title>1&#45;&gt;0</title>
<path fill="none" stroke="#000000" d="M785.3326,-558.4112C787.0855,-569.3287 791.06,-582.6263 800,-591 817.1266,-607.0418 881.641,-618.1437 919.6051,-623.4448"/>
<polygon fill="#000000" stroke="#000000" points="919.6228,-626.9787 930.0004,-624.8443 920.5568,-620.0413 919.6228,-626.9787"/>
<text text-anchor="middle" x="826" y="-579.8" font-family="Times,serif" font-size="14.00" fill="#000000">148/1211</text>
</g>
<!-- 1&#45;&gt;2 -->
<g id="edge45" class="edge">
<title>1&#45;&gt;2</title>
<path fill="none" stroke="#000000" d="M765.7038,-539.4951C697.1834,-537.4206 458.5129,-528.4753 436,-504 430.2885,-497.7907 428.6894,-489.1402 428.9329,-480.7252"/>
<polygon fill="#000000" stroke="#000000" points="432.4158,-481.0713 429.9912,-470.7576 425.4549,-480.3321 432.4158,-481.0713"/>
<text text-anchor="middle" x="458.5" y="-492.8" font-family="Times,serif" font-size="14.00" fill="#000000">55/1211</text>
</g>
<!-- 1&#45;&gt;3 -->
<g id="edge40" class="edge">
<title>1&#45;&gt;3</title>
<path fill="none" stroke="#000000" d="M802.15,-539.6268C876.0012,-537.6269 1150,-525.3332 1150,-453 1150,-453 1150,-453 1150,-322.5 1150,-256.1642 1183.1886,-237.7936 1165,-174 1147.1498,-111.3933 1130.5284,-96.2511 1081,-54 1071.6937,-46.0611 1060.5384,-38.4591 1050.714,-32.3036"/>
<polygon fill="#000000" stroke="#000000" points="1052.5177,-29.3041 1042.157,-27.0891 1048.8751,-35.2817 1052.5177,-29.3041"/>
<text text-anchor="middle" x="1178" y="-275.3" font-family="Times,serif" font-size="14.00" fill="#000000">0/1211</text>
</g>
<!-- 1&#45;&gt;4 -->
<g id="edge41" class="edge">
<title>1&#45;&gt;4</title>
<path fill="none" stroke="#000000" d="M765.7013,-539.0316C702.0963,-535.5303 490.9715,-522.7385 426,-504 342.5426,-479.93 319.5994,-470.2786 251,-417 210.6809,-385.6856 193.7798,-377.855 176,-330 173.6782,-323.7507 174.5046,-321.4968 176,-315 183.9812,-280.3261 196.5247,-275.5029 211,-243 224.4643,-212.7672 214.552,-196.3071 239,-174 285.5589,-131.5181 455.4376,-130.6414 518,-123 553.184,-118.7026 593.6126,-112.9811 619.9191,-109.1533"/>
<polygon fill="#000000" stroke="#000000" points="620.5496,-112.5984 629.9376,-107.6876 619.5363,-105.6721 620.5496,-112.5984"/>
<text text-anchor="middle" x="195" y="-318.8" font-family="Times,serif" font-size="14.00" fill="#000000">0/1211</text>
</g>
<!-- 1&#45;&gt;5 -->
<g id="edge42" class="edge">
<title>1&#45;&gt;5</title>
<path fill="none" stroke="#000000" d="M782.393,-521.8624C779.485,-494.7786 771.8998,-442.6073 754,-402 738.1827,-366.117 714.8936,-367.3674 703,-330 700.978,-323.6474 702.6492,-321.6574 703,-315 704.7226,-282.3115 709.0034,-244.9388 712.1848,-220.0515"/>
<polygon fill="#000000" stroke="#000000" points="715.6888,-220.2478 713.5131,-209.8788 708.7477,-219.3414 715.6888,-220.2478"/>
<text text-anchor="middle" x="762" y="-362.3" font-family="Times,serif" font-size="14.00" fill="#000000">0/1211</text>
</g>
<!-- 1&#45;&gt;6 -->
<g id="edge43" class="edge">
<title>1&#45;&gt;6</title>
<path fill="none" stroke="#000000" d="M766.5366,-535.1791C723.3421,-522.486 610.0085,-484.3963 541,-417 523.6669,-400.0719 494.597,-339.8174 478.5367,-304.7756"/>
<polygon fill="#000000" stroke="#000000" points="481.6978,-303.2718 474.3724,-295.6175 475.3257,-306.1694 481.6978,-303.2718"/>
<text text-anchor="middle" x="560" y="-405.8" font-family="Times,serif" font-size="14.00" fill="#000000">0/1211</text>
</g>
<!-- 1&#45;&gt;7 -->
<g id="edge44" class="edge">
<title>1&#45;&gt;7</title>
<path fill="none" stroke="#000000" d="M800.998,-533.0666C823.4526,-522.9626 862.4366,-501.9588 882,-471 896.519,-448.0239 900.3004,-416.8267 900.8876,-394.4178"/>
<polygon fill="#000000" stroke="#000000" points="904.3888,-394.2196 900.9522,-384.1976 897.3889,-394.1753 904.3888,-394.2196"/>
<text text-anchor="middle" x="915" y="-449.3" font-family="Times,serif" font-size="14.00" fill="#000000">0/1211</text>
</g>
<!-- 9 -->
<g id="node10" class="node">
<title>9</title>
<ellipse fill="none" stroke="#000000" cx="132" cy="-18" rx="18" ry="18"/>
<text text-anchor="middle" x="132" y="-14.3" font-family="Times,serif" font-size="14.00" fill="#000000">9</text>
</g>
<!-- 1&#45;&gt;9 -->
<g id="edge47" class="edge">
<title>1&#45;&gt;9</title>
<path fill="none" stroke="#000000" d="M765.8939,-539.1046C708.272,-536.1076 524.0594,-525.3898 373,-504 297.6581,-493.3317 272.5491,-506.0334 205,-471 204.2239,-470.5975 23.4011,-297.7769 23,-297 10.3273,-272.4539 14,-263.1245 14,-235.5 14,-235.5 14,-235.5 14,-105 14,-60.1747 69.8465,-35.8496 104.7003,-25.0332"/>
<polygon fill="#000000" stroke="#000000" points="105.7172,-28.3824 114.3342,-22.2182 103.7539,-21.6634 105.7172,-28.3824"/>
<text text-anchor="middle" x="38.5" y="-275.3" font-family="Times,serif" font-size="14.00" fill="#000000">77/77</text>
</g>
<!-- 2&#45;&gt;0 -->
<g id="edge57" class="edge">
<title>2&#45;&gt;0</title>
<path fill="none" stroke="#000000" d="M426.3354,-468.8321C421.6362,-479.7837 418.2147,-494.1091 426,-504 527.8095,-633.3443 625.6501,-553.8111 786,-591 832.9012,-601.8775 887.6007,-613.8939 919.9325,-620.9273"/>
<polygon fill="#000000" stroke="#000000" points="919.4811,-624.4108 929.9961,-623.1127 920.9666,-617.5703 919.4811,-624.4108"/>
<text text-anchor="middle" x="503" y="-536.3" font-family="Times,serif" font-size="14.00" fill="#000000">0/1211</text>
</g>
<!-- 2&#45;&gt;1 -->
<g id="edge63" class="edge">
<title>2&#45;&gt;1</title>
<path fill="none" stroke="#000000" d="M449.2217,-464.1125C467.5858,-478.3667 497.9186,-501.5555 504,-504 549.3661,-522.235 694.0976,-533.9136 755.7516,-538.1791"/>
<polygon fill="#000000" stroke="#000000" points="755.7055,-541.6839 765.919,-538.8671 756.1782,-534.6999 755.7055,-541.6839"/>
<text text-anchor="middle" x="530" y="-492.8" font-family="Times,serif" font-size="14.00" fill="#000000">225/1211</text>
</g>
<!-- 2&#45;&gt;3 -->
<g id="edge62" class="edge">
<title>2&#45;&gt;3</title>
<path fill="none" stroke="#000000" d="M416.9225,-451.1132C392.1691,-447.7811 347.2417,-438.9893 316,-417 205.1188,-338.9568 115.2557,-256.6747 186,-141 230.2827,-68.5929 274.0512,-76.0941 356,-54 418.5086,-37.1471 877.7093,-22.4161 997.4905,-18.8307"/>
<polygon fill="#000000" stroke="#000000" points="997.8021,-22.3231 1007.6938,-18.5278 997.5943,-15.3262 997.8021,-22.3231"/>
<text text-anchor="middle" x="185.5" y="-231.8" font-family="Times,serif" font-size="14.00" fill="#000000">55/1211</text>
</g>
<!-- 2&#45;&gt;4 -->
<g id="edge58" class="edge">
<title>2&#45;&gt;4</title>
<path fill="none" stroke="#000000" d="M420.8089,-441.3702C413.8205,-434.9001 405.8704,-426.2887 401,-417 368.8027,-355.5945 376.6708,-325.5426 402,-261 427.8892,-195.0305 444.2239,-173.8845 507,-141 543.2762,-121.9972 590.1428,-112.6258 619.6449,-108.3075"/>
<polygon fill="#000000" stroke="#000000" points="620.2427,-111.7584 629.6767,-106.9367 619.2949,-104.8229 620.2427,-111.7584"/>
<text text-anchor="middle" x="421" y="-275.3" font-family="Times,serif" font-size="14.00" fill="#000000">0/1211</text>
</g>
<!-- 2&#45;&gt;5 -->
<g id="edge59" class="edge">
<title>2&#45;&gt;5</title>
<path fill="none" stroke="#000000" d="M447.0728,-439.5565C478.1702,-404.9296 558.6204,-315.3548 559,-315 603.6253,-273.2877 661.3031,-230.6541 692.8521,-208.1775"/>
<polygon fill="#000000" stroke="#000000" points="694.8868,-211.0254 701.0252,-202.39 690.8414,-205.3127 694.8868,-211.0254"/>
<text text-anchor="middle" x="578" y="-318.8" font-family="Times,serif" font-size="14.00" fill="#000000">0/1211</text>
</g>
<!-- 2&#45;&gt;6 -->
<g id="edge60" class="edge">
<title>2&#45;&gt;6</title>
<path fill="none" stroke="#000000" d="M438.304,-435.0343C443.8996,-404.6084 455.2771,-342.7433 461.9013,-306.724"/>
<polygon fill="#000000" stroke="#000000" points="465.3474,-307.3361 463.7139,-296.868 458.4628,-306.0699 465.3474,-307.3361"/>
<text text-anchor="middle" x="474" y="-362.3" font-family="Times,serif" font-size="14.00" fill="#000000">0/1211</text>
</g>
<!-- 2&#45;&gt;7 -->
<g id="edge61" class="edge">
<title>2&#45;&gt;7</title>
<path fill="none" stroke="#000000" d="M453.1564,-451.1169C481.9397,-447.5872 539.2608,-438.3148 583,-417 592.6716,-412.2869 591.9668,-405.8844 602,-402 707.9521,-360.9806 746.4668,-410.2839 857,-384 862.7082,-382.6426 868.6321,-380.6104 874.1915,-378.3944"/>
<polygon fill="#000000" stroke="#000000" points="875.8765,-381.4798 883.6799,-374.3133 873.1106,-375.0494 875.8765,-381.4798"/>
<text text-anchor="middle" x="621" y="-405.8" font-family="Times,serif" font-size="14.00" fill="#000000">0/1211</text>
</g>
<!-- 2&#45;&gt;9 -->
<g id="edge64" class="edge">
<title>2&#45;&gt;9</title>
<path fill="none" stroke="#000000" d="M416.9465,-450.6627C376.6015,-445.2486 280.3699,-431.2206 251,-417 144.0477,-365.2149 97.6538,-350.9583 48,-243 14.4108,-169.9697 79.0502,-79.3316 113.0203,-39.0227"/>
<polygon fill="#000000" stroke="#000000" points="115.8777,-41.0686 119.7573,-31.2096 110.5764,-36.4974 115.8777,-41.0686"/>
<text text-anchor="middle" x="70.5" y="-231.8" font-family="Times,serif" font-size="14.00" fill="#000000">106/106</text>
</g>
<!-- 3&#45;&gt;0 -->
<g id="edge51" class="edge">
<title>3&#45;&gt;0</title>
<path fill="none" stroke="#000000" d="M1043.9552,-19.5746C1127.0206,-27.0938 1470,-60.8161 1470,-105 1470,-540 1470,-540 1470,-540 1470,-586.363 1423.6013,-578.3408 1379,-591 1302.8795,-612.6054 1059.9641,-623.0368 976.4889,-626.0488"/>
<polygon fill="#000000" stroke="#000000" points="976.329,-622.5522 966.4585,-626.4024 976.5757,-629.5478 976.329,-622.5522"/>
<text text-anchor="middle" x="1489" y="-318.8" font-family="Times,serif" font-size="14.00" fill="#000000">0/1211</text>
</g>
<!-- 3&#45;&gt;1 -->
<g id="edge50" class="edge">
<title>3&#45;&gt;1</title>
<path fill="none" stroke="#000000" d="M1042.7872,-24.5397C1058.7781,-31.0685 1083.2684,-41.8575 1103,-54 1123.2178,-66.4417 1130.273,-68.3809 1145,-87 1161.4069,-107.743 1160.2475,-116.4165 1170,-141 1224.0995,-277.3708 1242.3109,-348.2242 1162,-471 1148.4234,-491.7554 1140.1211,-495.0263 1117,-504 1061.684,-525.469 882.935,-535.5868 812.7079,-538.8076"/>
<polygon fill="#000000" stroke="#000000" points="812.2387,-535.3249 802.4041,-539.266 812.5499,-542.318 812.2387,-535.3249"/>
<text text-anchor="middle" x="1234" y="-275.3" font-family="Times,serif" font-size="14.00" fill="#000000">0/1211</text>
</g>
<!-- 3&#45;&gt;2 -->
<g id="edge56" class="edge">
<title>3&#45;&gt;2</title>
<path fill="none" stroke="#000000" d="M1024.8505,-36.0826C1022.5686,-74.2903 1017.8641,-166.0492 1020,-243 1020.8892,-275.037 1023.1108,-282.963 1024,-315 1024.185,-321.6641 1027.3783,-324.2527 1024,-330 965.7839,-429.0381 572.8232,-448.6903 463.2928,-452.2614"/>
<polygon fill="#000000" stroke="#000000" points="462.9241,-448.7709 453.0358,-452.5749 463.1381,-455.7676 462.9241,-448.7709"/>
<text text-anchor="middle" x="1046" y="-231.8" font-family="Times,serif" font-size="14.00" fill="#000000">331/1211</text>
</g>
<!-- 3&#45;&gt;4 -->
<g id="edge54" class="edge">
<title>3&#45;&gt;4</title>
<path fill="none" stroke="#000000" d="M1008.0406,-20.6406C973.0051,-25.9259 893.1744,-38.6267 827,-54 772.6615,-66.6236 710.2058,-85.4151 675.2934,-96.3145"/>
<polygon fill="#000000" stroke="#000000" points="673.8735,-93.0918 665.3822,-99.4281 675.9715,-99.77 673.8735,-93.0918"/>
<text text-anchor="middle" x="849.5" y="-57.8" font-family="Times,serif" font-size="14.00" fill="#000000">51/1211</text>
</g>
<!-- 3&#45;&gt;5 -->
<g id="edge55" class="edge">
<title>3&#45;&gt;5</title>
<path fill="none" stroke="#000000" d="M1015.6171,-33.1242C999.2966,-55.8056 965.5017,-98.5693 927,-123 867.75,-160.5962 786.05,-179.6164 743.8035,-187.4666"/>
<polygon fill="#000000" stroke="#000000" points="743.1794,-184.0226 733.9506,-189.2262 744.4102,-190.9135 743.1794,-184.0226"/>
<text text-anchor="middle" x="988" y="-101.3" font-family="Times,serif" font-size="14.00" fill="#000000">4/1211</text>
</g>
<!-- 3&#45;&gt;6 -->
<g id="edge52" class="edge">
<title>3&#45;&gt;6</title>
<path fill="none" stroke="#000000" d="M1007.9766,-18.7276C913.8182,-22.71 481.2861,-43.3051 443,-87 401.8914,-133.9161 433.0462,-213.7884 453.2605,-254.1233"/>
<polygon fill="#000000" stroke="#000000" points="450.2828,-255.9845 457.9908,-263.2534 456.4982,-252.7642 450.2828,-255.9845"/>
<text text-anchor="middle" x="443" y="-144.8" font-family="Times,serif" font-size="14.00" fill="#000000">0/1211</text>
</g>
<!-- 3&#45;&gt;7 -->
<g id="edge53" class="edge">
<title>3&#45;&gt;7</title>
<path fill="none" stroke="#000000" d="M1039.5318,-30.6775C1069.4511,-60.2929 1137.3277,-137.0521 1121,-210 1107.6104,-269.821 1105.0002,-297.5375 1053,-330 1032.3177,-342.9115 965.9581,-355.3389 927.7685,-361.6668"/>
<polygon fill="#000000" stroke="#000000" points="927.1149,-358.227 917.8055,-363.2852 928.2373,-365.1365 927.1149,-358.227"/>
<text text-anchor="middle" x="1142" y="-188.3" font-family="Times,serif" font-size="14.00" fill="#000000">0/1211</text>
</g>
<!-- 4&#45;&gt;0 -->
<g id="edge12" class="edge">
<title>4&#45;&gt;0</title>
<path fill="none" stroke="#000000" d="M665.9117,-107.0091C751.4616,-116.6564 1116.3335,-158.3996 1165,-174 1243.5718,-199.1868 1277.8682,-196.2432 1329,-261 1344.3646,-280.4588 1337.6432,-290.7921 1343,-315 1366.3581,-420.5571 1385.3272,-463.9568 1332,-558 1321.131,-577.1676 1315.1568,-582.0987 1295,-591 1238.0848,-616.1338 1049.0256,-624.1125 976.5855,-626.2833"/>
<polygon fill="#000000" stroke="#000000" points="976.2815,-622.7905 966.385,-626.5733 976.4805,-629.7877 976.2815,-622.7905"/>
<text text-anchor="middle" x="1377" y="-362.3" font-family="Times,serif" font-size="14.00" fill="#000000">0/1211</text>
</g>
<!-- 4&#45;&gt;1 -->
<g id="edge11" class="edge">
<title>4&#45;&gt;1</title>
<path fill="none" stroke="#000000" d="M666.1217,-105.8511C720.5323,-109.5029 882.7934,-128.6425 949,-228 995.6287,-297.9764 996.8572,-500.6113 994,-504 982.376,-517.7863 866.6152,-531.4578 812.1079,-537.1903"/>
<polygon fill="#000000" stroke="#000000" points="811.6588,-533.718 802.0722,-538.2287 812.3793,-540.6809 811.6588,-533.718"/>
<text text-anchor="middle" x="1001" y="-318.8" font-family="Times,serif" font-size="14.00" fill="#000000">0/1211</text>
</g>
<!-- 4&#45;&gt;2 -->
<g id="edge10" class="edge">
<title>4&#45;&gt;2</title>
<path fill="none" stroke="#000000" d="M629.9304,-107.6297C604.8369,-111.2525 558.0063,-117.908 518,-123 483.6016,-127.3782 389.2312,-118.3208 363,-141 316.2104,-181.4538 290.834,-366.8223 327,-417 336.5204,-430.2089 378.5239,-441.3276 407.2535,-447.575"/>
<polygon fill="#000000" stroke="#000000" points="406.6472,-451.0239 417.1527,-449.6511 408.0841,-444.1729 406.6472,-451.0239"/>
<text text-anchor="middle" x="335" y="-275.3" font-family="Times,serif" font-size="14.00" fill="#000000">0/1211</text>
</g>
<!-- 4&#45;&gt;3 -->
<g id="edge9" class="edge">
<title>4&#45;&gt;3</title>
<path fill="none" stroke="#000000" d="M661.7936,-93.2766C676.7882,-81.2425 701.9721,-63.0379 727,-54 776.5088,-36.1218 933.1073,-24.0964 997.7095,-19.777"/>
<polygon fill="#000000" stroke="#000000" points="998.2097,-23.2518 1007.9593,-19.1051 997.7517,-16.2668 998.2097,-23.2518"/>
<text text-anchor="middle" x="746" y="-57.8" font-family="Times,serif" font-size="14.00" fill="#000000">0/1211</text>
</g>
<!-- 4&#45;&gt;5 -->
<g id="edge15" class="edge">
<title>4&#45;&gt;5</title>
<path fill="none" stroke="#000000" d="M663.7293,-114.4041C673.4862,-120.8807 685.7006,-130.2399 694,-141 699.443,-148.0568 703.8234,-156.6655 707.1989,-164.7858"/>
<polygon fill="#000000" stroke="#000000" points="703.9955,-166.2088 710.8219,-174.3114 710.5382,-163.7203 703.9955,-166.2088"/>
<text text-anchor="middle" x="724.5" y="-144.8" font-family="Times,serif" font-size="14.00" fill="#000000">67/1211</text>
</g>
<!-- 4&#45;&gt;6 -->
<g id="edge13" class="edge">
<title>4&#45;&gt;6</title>
<path fill="none" stroke="#000000" d="M635.9221,-118.8054C616.8088,-140.1217 577.7675,-181.5539 539,-210 525.5305,-219.8834 518.6844,-217.1272 506,-228 497.0215,-235.6962 488.7867,-245.7726 482.2211,-254.9346"/>
<polygon fill="#000000" stroke="#000000" points="479.233,-253.1034 476.468,-263.331 485.0076,-257.06 479.233,-253.1034"/>
<text text-anchor="middle" x="604.5" y="-188.3" font-family="Times,serif" font-size="14.00" fill="#000000">51/1211</text>
</g>
<!-- 4&#45;&gt;7 -->
<g id="edge16" class="edge">
<title>4&#45;&gt;7</title>
<path fill="none" stroke="#000000" d="M665.9497,-108.4726C687.4958,-113.2456 724.0852,-123.3194 751,-141 802.5252,-174.8474 793.1396,-209.6684 845,-243 866.6367,-256.9063 884.3322,-240.6027 900,-261 916.852,-282.939 913.7241,-315.7656 908.3826,-338.8618"/>
<polygon fill="#000000" stroke="#000000" points="904.9498,-338.1571 905.8365,-348.7147 911.7272,-339.9085 904.9498,-338.1571"/>
<text text-anchor="middle" x="867.5" y="-231.8" font-family="Times,serif" font-size="14.00" fill="#000000">12/1211</text>
</g>
<!-- 4&#45;&gt;9 -->
<g id="edge14" class="edge">
<title>4&#45;&gt;9</title>
<path fill="none" stroke="#000000" d="M630.2381,-102.0053C553.9553,-89.1436 253.7671,-38.5305 160.0834,-22.735"/>
<polygon fill="#000000" stroke="#000000" points="160.3962,-19.2384 149.9534,-21.027 159.2323,-26.141 160.3962,-19.2384"/>
<text text-anchor="middle" x="436.5" y="-57.8" font-family="Times,serif" font-size="14.00" fill="#000000">39/39</text>
</g>
<!-- 5&#45;&gt;0 -->
<g id="edge4" class="edge">
<title>5&#45;&gt;0</title>
<path fill="none" stroke="#000000" d="M734.1058,-192.7808C828.7038,-197.0343 1263.3737,-218.7873 1304,-261 1350.0318,-308.8293 1320,-343.118 1320,-409.5 1320,-540 1320,-540 1320,-540 1320,-573.0118 1295.9404,-577.095 1266,-591 1214.8049,-614.776 1044.5477,-623.4886 976.48,-626.0715"/>
<polygon fill="#000000" stroke="#000000" points="975.9671,-622.5876 966.1003,-626.4474 976.2205,-629.5831 975.9671,-622.5876"/>
<text text-anchor="middle" x="1339" y="-405.8" font-family="Times,serif" font-size="14.00" fill="#000000">0/1211</text>
</g>
<!-- 5&#45;&gt;1 -->
<g id="edge3" class="edge">
<title>5&#45;&gt;1</title>
<path fill="none" stroke="#000000" d="M717.1499,-210.1639C719.6575,-233.7752 727.6333,-274.6265 753,-297 781.3086,-321.9682 812.3059,-285.6167 836,-315 840.1848,-320.1896 836.8071,-323.3824 836,-330 831.6682,-365.516 804.9831,-464.4801 791.6155,-512.7824"/>
<polygon fill="#000000" stroke="#000000" points="788.206,-511.9797 788.9021,-522.5516 794.9507,-513.8531 788.206,-511.9797"/>
<text text-anchor="middle" x="851" y="-362.3" font-family="Times,serif" font-size="14.00" fill="#000000">0/1211</text>
</g>
<!-- 5&#45;&gt;2 -->
<g id="edge2" class="edge">
<title>5&#45;&gt;2</title>
<path fill="none" stroke="#000000" d="M705.3425,-206.7278C676.2054,-246.0447 591.0879,-354.7113 497,-417 485.1619,-424.8371 471.5647,-432.8372 460.1259,-439.2992"/>
<polygon fill="#000000" stroke="#000000" points="458.1389,-436.3998 451.111,-444.3282 461.5492,-442.513 458.1389,-436.3998"/>
<text text-anchor="middle" x="633" y="-318.8" font-family="Times,serif" font-size="14.00" fill="#000000">0/1211</text>
</g>
<!-- 5&#45;&gt;3 -->
<g id="edge1" class="edge">
<title>5&#45;&gt;3</title>
<path fill="none" stroke="#000000" d="M731.2562,-181.986C767.6285,-158.3041 862.6364,-97.5736 946,-54 963.4943,-44.8558 983.7804,-35.7431 999.5472,-28.9738"/>
<polygon fill="#000000" stroke="#000000" points="1001.3418,-32.0145 1009.1809,-24.8871 998.6081,-25.5703 1001.3418,-32.0145"/>
<text text-anchor="middle" x="904" y="-101.3" font-family="Times,serif" font-size="14.00" fill="#000000">0/1211</text>
</g>
<!-- 5&#45;&gt;4 -->
<g id="edge8" class="edge">
<title>5&#45;&gt;4</title>
<path fill="none" stroke="#000000" d="M698.235,-187.8576C682.2732,-183.0992 659.7438,-173.5757 649,-156 644.825,-149.1701 643.4736,-140.8051 643.4724,-132.8405"/>
<polygon fill="#000000" stroke="#000000" points="646.9713,-132.9689 644.1245,-122.7637 639.9859,-132.5168 646.9713,-132.9689"/>
<text text-anchor="middle" x="671.5" y="-144.8" font-family="Times,serif" font-size="14.00" fill="#000000">47/1211</text>
</g>
<!-- 5&#45;&gt;6 -->
<g id="edge6" class="edge">
<title>5&#45;&gt;6</title>
<path fill="none" stroke="#000000" d="M698.2308,-195.3358C651.1988,-204.1691 526.9801,-227.5265 526,-228 517.5413,-232.0863 500.9172,-246.7275 487.4653,-259.2804"/>
<polygon fill="#000000" stroke="#000000" points="484.8636,-256.9233 479.9973,-266.3344 489.6703,-262.0121 484.8636,-256.9233"/>
<text text-anchor="middle" x="548.5" y="-231.8" font-family="Times,serif" font-size="14.00" fill="#000000">51/1211</text>
</g>
<!-- 5&#45;&gt;7 -->
<g id="edge5" class="edge">
<title>5&#45;&gt;7</title>
<path fill="none" stroke="#000000" d="M732.7633,-198.7439C747.8585,-205.189 770.3231,-215.7228 788,-228 824.9339,-253.6518 827.5191,-268.135 862,-297 872.2238,-305.5587 878.4978,-303.9775 886,-315 890.5979,-321.7555 893.691,-329.9779 895.7698,-337.8307"/>
<polygon fill="#000000" stroke="#000000" points="892.3931,-338.7721 897.9596,-347.7868 899.2296,-337.2684 892.3931,-338.7721"/>
<text text-anchor="middle" x="881" y="-275.3" font-family="Times,serif" font-size="14.00" fill="#000000">0/1211</text>
</g>
<!-- 5&#45;&gt;9 -->
<g id="edge7" class="edge">
<title>5&#45;&gt;9</title>
<path fill="none" stroke="#000000" d="M698.522,-186.7925C615.4875,-162.0528 260.6817,-56.3401 159.208,-26.1065"/>
<polygon fill="#000000" stroke="#000000" points="159.9929,-22.6884 149.4098,-23.1872 157.9941,-29.3969 159.9929,-22.6884"/>
<text text-anchor="middle" x="498.5" y="-101.3" font-family="Times,serif" font-size="14.00" fill="#000000">67/67</text>
</g>
<!-- 6&#45;&gt;0 -->
<g id="edge35" class="edge">
<title>6&#45;&gt;0</title>
<path fill="none" stroke="#000000" d="M452.7213,-290.8833C449.9031,-293.0235 446.9142,-295.1573 444,-297 428.8805,-306.5604 423.9293,-306.8601 408,-315 327.1907,-356.2936 227,-318.7514 227,-409.5 227,-540 227,-540 227,-540 227,-601.2383 295.2364,-577.6422 355,-591 464.6226,-615.5018 816.9875,-624.3707 919.6702,-626.4714"/>
<polygon fill="#000000" stroke="#000000" points="919.8086,-629.9748 929.8763,-626.6745 919.9479,-622.9762 919.8086,-629.9748"/>
<text text-anchor="middle" x="246" y="-449.3" font-family="Times,serif" font-size="14.00" fill="#000000">0/1211</text>
</g>
<!-- 6&#45;&gt;1 -->
<g id="edge34" class="edge">
<title>6&#45;&gt;1</title>
<path fill="none" stroke="#000000" d="M485.1193,-282.2413C509.6258,-287.0866 554.2638,-297.5636 589,-315 617.7977,-329.4555 686.9917,-375.2797 705,-402 731.2084,-440.8874 705.0583,-465.617 732,-504 738.7883,-513.671 749.0577,-521.5726 758.6823,-527.4835"/>
<polygon fill="#000000" stroke="#000000" points="757.1533,-530.6402 767.5776,-532.5335 760.6092,-524.5527 757.1533,-530.6402"/>
<text text-anchor="middle" x="731" y="-405.8" font-family="Times,serif" font-size="14.00" fill="#000000">0/1211</text>
</g>
<!-- 6&#45;&gt;2 -->
<g id="edge33" class="edge">
<title>6&#45;&gt;2</title>
<path fill="none" stroke="#000000" d="M452.0632,-289.1187C435.9564,-301.0308 411.2475,-322.4616 401,-348 389.8865,-375.6968 404.8809,-408.5578 418.3289,-430.0473"/>
<polygon fill="#000000" stroke="#000000" points="415.4869,-432.0952 423.917,-438.5127 421.3288,-428.2388 415.4869,-432.0952"/>
<text text-anchor="middle" x="420" y="-362.3" font-family="Times,serif" font-size="14.00" fill="#000000">0/1211</text>
</g>
<!-- 6&#45;&gt;3 -->
<g id="edge32" class="edge">
<title>6&#45;&gt;3</title>
<path fill="none" stroke="#000000" d="M452.829,-267.6215C429.5759,-247.8775 384.3686,-204.6893 369,-156 355.4934,-113.2095 390.8347,-69.5451 415,-54 439.7818,-38.0583 880.447,-22.7116 997.5955,-18.9002"/>
<polygon fill="#000000" stroke="#000000" points="998.0158,-22.3886 1007.8977,-18.5677 997.7899,-15.3922 998.0158,-22.3886"/>
<text text-anchor="middle" x="388" y="-144.8" font-family="Times,serif" font-size="14.00" fill="#000000">0/1211</text>
</g>
<!-- 6&#45;&gt;4 -->
<g id="edge38" class="edge">
<title>6&#45;&gt;4</title>
<path fill="none" stroke="#000000" d="M466.2257,-260.9141C466.2138,-238.1322 469.5161,-198.9535 490,-174 523.0454,-133.7441 584.1618,-116.3348 619.924,-109.3122"/>
<polygon fill="#000000" stroke="#000000" points="620.9372,-112.6854 630.1495,-107.4524 619.6846,-105.7984 620.9372,-112.6854"/>
<text text-anchor="middle" x="512.5" y="-188.3" font-family="Times,serif" font-size="14.00" fill="#000000">12/1211</text>
</g>
<!-- 6&#45;&gt;5 -->
<g id="edge36" class="edge">
<title>6&#45;&gt;5</title>
<path fill="none" stroke="#000000" d="M484.4494,-274.3798C505.5406,-268.477 541.8314,-257.2911 571,-243 581.9593,-237.6305 582.9193,-233.1143 594,-228 624.8782,-213.7481 662.7551,-203.6154 688.0363,-197.8035"/>
<polygon fill="#000000" stroke="#000000" points="689.0413,-201.1655 698.0428,-195.5778 687.5214,-194.3325 689.0413,-201.1655"/>
<text text-anchor="middle" x="616.5" y="-231.8" font-family="Times,serif" font-size="14.00" fill="#000000">51/1211</text>
</g>
<!-- 6&#45;&gt;7 -->
<g id="edge37" class="edge">
<title>6&#45;&gt;7</title>
<path fill="none" stroke="#000000" d="M485.2451,-279.6849C532.5643,-281.7816 662.8712,-289.6013 768,-315 788.6679,-319.9933 841.7339,-341.5501 873.9373,-354.9889"/>
<polygon fill="#000000" stroke="#000000" points="872.627,-358.2347 883.2027,-358.8716 875.3325,-351.7786 872.627,-358.2347"/>
<text text-anchor="middle" x="831.5" y="-318.8" font-family="Times,serif" font-size="14.00" fill="#000000">55/1211</text>
</g>
<!-- 6&#45;&gt;9 -->
<g id="edge39" class="edge">
<title>6&#45;&gt;9</title>
<path fill="none" stroke="#000000" d="M451.4243,-269.8444C445.7514,-266.7556 439.2059,-263.4689 433,-261 300.572,-208.3149 207.198,-275.8055 130,-156 108.5222,-122.6681 115.6483,-74.7624 123.3722,-45.0539"/>
<polygon fill="#000000" stroke="#000000" points="126.761,-45.9314 126.0833,-35.3582 120.0196,-44.0463 126.761,-45.9314"/>
<text text-anchor="middle" x="145.5" y="-144.8" font-family="Times,serif" font-size="14.00" fill="#000000">46/46</text>
</g>
<!-- 7&#45;&gt;0 -->
<g id="edge21" class="edge">
<title>7&#45;&gt;0</title>
<path fill="none" stroke="#000000" d="M917.9375,-369.586C936.6129,-374.1645 965.6498,-383.7762 984,-402 1013.9388,-431.7324 1013.3733,-447.6971 1022,-489 1031.6711,-535.3036 994.0094,-582.4158 968.8901,-607.8463"/>
<polygon fill="#000000" stroke="#000000" points="966.2617,-605.5214 961.5634,-615.0176 971.1581,-610.524 966.2617,-605.5214"/>
<text text-anchor="middle" x="1042" y="-492.8" font-family="Times,serif" font-size="14.00" fill="#000000">0/1211</text>
</g>
<!-- 7&#45;&gt;1 -->
<g id="edge20" class="edge">
<title>7&#45;&gt;1</title>
<path fill="none" stroke="#000000" d="M887.9427,-379.4945C876.1059,-393.045 857.8602,-414.7605 844,-435 826.0194,-461.2563 808.2975,-493.229 796.831,-514.945"/>
<polygon fill="#000000" stroke="#000000" points="793.7016,-513.3764 792.1709,-523.8601 799.9052,-516.6192 793.7016,-513.3764"/>
<text text-anchor="middle" x="863" y="-449.3" font-family="Times,serif" font-size="14.00" fill="#000000">0/1211</text>
</g>
<!-- 7&#45;&gt;2 -->
<g id="edge19" class="edge">
<title>7&#45;&gt;2</title>
<path fill="none" stroke="#000000" d="M883.6559,-374.2152C875.7891,-377.8092 866.1065,-381.7188 857,-384 774.7197,-404.6111 747.0744,-374.0186 667,-402 655.4791,-406.0259 655.3593,-412.5386 644,-417 582.3395,-441.217 504.1147,-449.176 463.0666,-451.7678"/>
<polygon fill="#000000" stroke="#000000" points="462.7759,-448.2786 452.9912,-452.3418 463.1741,-455.2673 462.7759,-448.2786"/>
<text text-anchor="middle" x="686" y="-405.8" font-family="Times,serif" font-size="14.00" fill="#000000">0/1211</text>
</g>
<!-- 7&#45;&gt;3 -->
<g id="edge18" class="edge">
<title>7&#45;&gt;3</title>
<path fill="none" stroke="#000000" d="M917.8088,-362.9897C949.5961,-357.3225 1014.424,-344.3416 1032,-330 1065.5722,-302.6059 1065.948,-285.1484 1076,-243 1093.2739,-170.5699 1059.0177,-84.5555 1039.0172,-42.9742"/>
<polygon fill="#000000" stroke="#000000" points="1042.0823,-41.2764 1034.5157,-33.8603 1035.8061,-44.3763 1042.0823,-41.2764"/>
<text text-anchor="middle" x="1099" y="-188.3" font-family="Times,serif" font-size="14.00" fill="#000000">0/1211</text>
</g>
<!-- 7&#45;&gt;4 -->
<g id="edge23" class="edge">
<title>7&#45;&gt;4</title>
<path fill="none" stroke="#000000" d="M912.1497,-352.6996C917.1664,-346.3224 922.4076,-338.2781 925,-330 929.9286,-314.2622 930.5375,-284.9121 920,-261 912.0069,-242.8617 904.661,-241.3396 890,-228 842.3335,-184.6297 831.7198,-169.662 774,-141 742.1221,-125.1704 702.1502,-115.2436 675.8822,-109.9167"/>
<polygon fill="#000000" stroke="#000000" points="676.3456,-106.4415 665.8622,-107.9735 675.0129,-113.3135 676.3456,-106.4415"/>
<text text-anchor="middle" x="926" y="-231.8" font-family="Times,serif" font-size="14.00" fill="#000000">4/1211</text>
</g>
<!-- 7&#45;&gt;5 -->
<g id="edge17" class="edge">
<title>7&#45;&gt;5</title>
<path fill="none" stroke="#000000" d="M891.6018,-349.7669C884.8493,-338.3267 874.3051,-323.5728 861,-315 831.0927,-295.73 811.7326,-317.9813 783,-297 754.1913,-275.9631 761.5735,-257.8224 742,-228 739.1869,-223.7139 736.0808,-219.2253 733.0238,-214.9287"/>
<polygon fill="#000000" stroke="#000000" points="735.6258,-212.5542 726.9275,-206.5052 729.9551,-216.6583 735.6258,-212.5542"/>
<text text-anchor="middle" x="802" y="-275.3" font-family="Times,serif" font-size="14.00" fill="#000000">0/1211</text>
</g>
<!-- 7&#45;&gt;6 -->
<g id="edge24" class="edge">
<title>7&#45;&gt;6</title>
<path fill="none" stroke="#000000" d="M883.6144,-357.944C875.7384,-354.3849 866.0602,-350.4586 857,-348 799.0069,-332.2626 781.5402,-343.5611 723,-330 702.462,-325.2423 698.4504,-320.1211 678,-315 613.3068,-298.7998 535.6234,-287.6214 494.9555,-282.3853"/>
<polygon fill="#000000" stroke="#000000" points="495.3353,-278.9056 484.9755,-281.1246 494.4579,-285.8504 495.3353,-278.9056"/>
<text text-anchor="middle" x="745.5" y="-318.8" font-family="Times,serif" font-size="14.00" fill="#000000">24/1211</text>
</g>
<!-- 7&#45;&gt;9 -->
<g id="edge22" class="edge">
<title>7&#45;&gt;9</title>
<path fill="none" stroke="#000000" d="M886.1967,-354.3782C882.4574,-351.829 878.2592,-349.4582 874,-348 754.5209,-307.0949 414.0438,-365.5799 308,-297 212.929,-235.5164 159.7343,-102.6078 140.4352,-45.2565"/>
<polygon fill="#000000" stroke="#000000" points="143.665,-43.8731 137.2237,-35.4612 137.0134,-46.054 143.665,-43.8731"/>
<text text-anchor="middle" x="236.5" y="-188.3" font-family="Times,serif" font-size="14.00" fill="#000000">51/51</text>
</g>
<!-- 8 -->
<g id="node9" class="node">
<title>8</title>
<ellipse fill="none" stroke="#000000" cx="1367" cy="-714" rx="18" ry="18"/>
<text text-anchor="middle" x="1367" y="-710.3" font-family="Times,serif" font-size="14.00" fill="#000000">8</text>
</g>
<!-- 8&#45;&gt;0 -->
<g id="edge48" class="edge">
<title>8&#45;&gt;0</title>
<path fill="none" stroke="#000000" d="M1349.2637,-710.3173C1283.8222,-696.7292 1055.5894,-649.3396 975.7968,-632.7716"/>
<polygon fill="#000000" stroke="#000000" points="976.4778,-629.3385 965.9751,-630.7323 975.0547,-636.1923 976.4778,-629.3385"/>
<text text-anchor="middle" x="1197.5" y="-666.8" font-family="Times,serif" font-size="14.00" fill="#000000">55/55</text>
</g>
<!-- 8&#45;&gt;3 -->
<g id="edge49" class="edge">
<title>8&#45;&gt;3</title>
<path fill="none" stroke="#000000" d="M1385.2005,-712.3458C1426.3516,-707.5054 1523,-689.4859 1523,-627 1523,-627 1523,-627 1523,-105 1523,-85.444 1471.9863,-73.5844 1374,-54 1256.8113,-30.5777 1114.1945,-21.8935 1054.4595,-19.1285"/>
<polygon fill="#000000" stroke="#000000" points="1054.4399,-15.6243 1044.295,-18.6789 1054.1305,-22.6175 1054.4399,-15.6243"/>
<text text-anchor="middle" x="1545.5" y="-362.3" font-family="Times,serif" font-size="14.00" fill="#000000">331/334</text>
</g>
</g>
</svg>
