<?xml version="1.0" encoding="UTF-8" standalone="no"?>
<!DOCTYPE svg PUBLIC "-//W3C//DTD SVG 1.1//EN"
 "http://www.w3.org/Graphics/SVG/1.1/DTD/svg11.dtd">
<!-- Generated by graphviz version 2.40.1 (20161225.0304)
 -->
<!-- Title: g Pages: 1 -->
<svg width="142pt" height="392pt"
 viewBox="0.00 0.00 142.00 392.00" xmlns="http://www.w3.org/2000/svg" xmlns:xlink="http://www.w3.org/1999/xlink">
<g id="graph0" class="graph" transform="scale(1 1) rotate(0) translate(4 388)">
<title>g</title>
<polygon fill="#ffffff" stroke="transparent" points="-4,4 -4,-388 138,-388 138,4 -4,4"/>
<!-- 0 -->
<g id="node1" class="node">
<title>0</title>
<ellipse fill="none" stroke="#000000" cx="73" cy="-366" rx="18" ry="18"/>
<text text-anchor="middle" x="73" y="-362.3" font-family="Times,serif" font-size="14.00" fill="#000000">0</text>
</g>
<!-- 1 -->
<g id="node2" class="node">
<title>1</title>
<ellipse fill="none" stroke="#000000" cx="18" cy="-192" rx="18" ry="18"/>
<text text-anchor="middle" x="18" y="-188.3" font-family="Times,serif" font-size="14.00" fill="#000000">1</text>
</g>
<!-- 0&#45;&gt;1 -->
<g id="edge3" class="edge">
<title>0&#45;&gt;1</title>
<path fill="none" stroke="#000000" d="M63.8076,-350.3346C56.1521,-336.6682 45.4889,-316.0928 39,-297 30.4027,-271.7035 24.8398,-241.7169 21.614,-220.2791"/>
<polygon fill="#000000" stroke="#000000" points="25.0546,-219.6139 20.1758,-210.2092 18.1249,-220.6037 25.0546,-219.6139"/>
<text text-anchor="middle" x="42.5" y="-275.3" font-family="Times,serif" font-size="14.00" fill="#000000">7</text>
</g>
<!-- 2 -->
<g id="node3" class="node">
<title>2</title>
<ellipse fill="none" stroke="#000000" cx="116" cy="-192" rx="18" ry="18"/>
<text text-anchor="middle" x="116" y="-188.3" font-family="Times,serif" font-size="14.00" fill="#000000">2</text>
</g>
<!-- 0&#45;&gt;2 -->
<g id="edge1" class="edge">
<title>0&#45;&gt;2</title>
<path fill="none" stroke="#000000" d="M87.8471,-355.0474C95.298,-348.6486 103.6458,-339.8932 108,-330 123.6016,-294.5519 122.7119,-248.9548 119.923,-220.0919"/>
<polygon fill="#000000" stroke="#000000" points="123.3742,-219.4578 118.7916,-209.9053 116.417,-220.2306 123.3742,-219.4578"/>
<text text-anchor="middle" x="124.5" y="-275.3" font-family="Times,serif" font-size="14.00" fill="#000000">8</text>
</g>
<!-- 3 -->
<g id="node4" class="node">
<title>3</title>
<ellipse fill="none" stroke="#000000" cx="73" cy="-279" rx="18" ry="18"/>
<text text-anchor="middle" x="73" y="-275.3" font-family="Times,serif" font-size="14.00" fill="#000000">3</text>
</g>
<!-- 0&#45;&gt;3 -->
<g id="edge2" class="edge">
<title>0&#45;&gt;3</title>
<path fill="none" stroke="#000000" d="M73,-347.9735C73,-336.1918 73,-320.5607 73,-307.1581"/>
<polygon fill="#000000" stroke="#000000" points="76.5001,-307.0033 73,-297.0034 69.5001,-307.0034 76.5001,-307.0033"/>
<text text-anchor="middle" x="88.5" y="-318.8" font-family="Times,serif" font-size="14.00" fill="#000000">10/20</text>
</g>
<!-- 4 -->
<g id="node5" class="node">
<title>4</title>
<ellipse fill="none" stroke="#000000" cx="70" cy="-105" rx="18" ry="18"/>
<text text-anchor="middle" x="70" y="-101.3" font-family="Times,serif" font-size="14.00" fill="#000000">4</text>
</g>
<!-- 1&#45;&gt;4 -->
<g id="edge8" class="edge">
<title>1&#45;&gt;4</title>
<path fill="none" stroke="#000000" d="M27.2966,-176.4461C35.0864,-163.4132 46.3453,-144.5762 55.3468,-129.5159"/>
<polygon fill="#000000" stroke="#000000" points="58.4824,-131.0918 60.6086,-120.7125 52.4738,-127.5005 58.4824,-131.0918"/>
<text text-anchor="middle" x="50.5" y="-144.8" font-family="Times,serif" font-size="14.00" fill="#000000">1</text>
</g>
<!-- 5 -->
<g id="node6" class="node">
<title>5</title>
<ellipse fill="none" stroke="#000000" cx="34" cy="-18" rx="18" ry="18"/>
<text text-anchor="middle" x="34" y="-14.3" font-family="Times,serif" font-size="14.00" fill="#000000">5</text>
</g>
<!-- 1&#45;&gt;5 -->
<g id="edge9" class="edge">
<title>1&#45;&gt;5</title>
<path fill="none" stroke="#000000" d="M19.652,-174.0343C22.4306,-143.8176 28.0604,-82.5928 31.382,-46.4709"/>
<polygon fill="#000000" stroke="#000000" points="34.9025,-46.4071 32.333,-36.1286 27.9319,-45.7661 34.9025,-46.4071"/>
<text text-anchor="middle" x="35" y="-101.3" font-family="Times,serif" font-size="14.00" fill="#000000">21</text>
</g>
<!-- 2&#45;&gt;4 -->
<g id="edge4" class="edge">
<title>2&#45;&gt;4</title>
<path fill="none" stroke="#000000" d="M107.5629,-176.0429C100.7969,-163.2464 91.1748,-145.0479 83.3631,-130.2737"/>
<polygon fill="#000000" stroke="#000000" points="86.3078,-128.355 78.5394,-121.1506 80.1195,-131.627 86.3078,-128.355"/>
<text text-anchor="middle" x="102" y="-144.8" font-family="Times,serif" font-size="14.00" fill="#000000">12</text>
</g>
<!-- 3&#45;&gt;1 -->
<g id="edge7" class="edge">
<title>3&#45;&gt;1</title>
<path fill="none" stroke="#000000" d="M61.2361,-265.0552C55.9896,-258.5479 49.9011,-250.5799 45,-243 39.783,-234.9314 34.6854,-225.7505 30.3501,-217.4231"/>
<polygon fill="#000000" stroke="#000000" points="33.4617,-215.8204 25.8134,-208.4886 27.2202,-218.9897 33.4617,-215.8204"/>
<text text-anchor="middle" x="52" y="-231.8" font-family="Times,serif" font-size="14.00" fill="#000000">11</text>
</g>
<!-- 3&#45;&gt;2 -->
<g id="edge6" class="edge">
<title>3&#45;&gt;2</title>
<path fill="none" stroke="#000000" d="M81.088,-262.636C87.3943,-249.8766 96.2639,-231.9312 103.4847,-217.3216"/>
<polygon fill="#000000" stroke="#000000" points="106.655,-218.8063 107.9483,-208.2907 100.3797,-215.7046 106.655,-218.8063"/>
<text text-anchor="middle" x="100.5" y="-231.8" font-family="Times,serif" font-size="14.00" fill="#000000">2</text>
</g>
<!-- 3&#45;&gt;4 -->
<g id="edge5" class="edge">
<title>3&#45;&gt;4</title>
<path fill="none" stroke="#000000" d="M72.6846,-260.7078C72.1611,-230.3436 71.109,-169.3226 70.4887,-133.3464"/>
<polygon fill="#000000" stroke="#000000" points="73.9831,-132.9852 70.3112,-123.0471 66.9842,-133.106 73.9831,-132.9852"/>
<text text-anchor="middle" x="74.5" y="-188.3" font-family="Times,serif" font-size="14.00" fill="#000000">5</text>
</g>
<!-- 4&#45;&gt;5 -->
<g id="edge10" class="edge">
<title>4&#45;&gt;5</title>
<path fill="none" stroke="#000000" d="M63.0588,-88.2255C57.8793,-75.7084 50.7052,-58.371 44.7814,-44.055"/>
<polygon fill="#000000" stroke="#000000" points="47.9775,-42.6249 40.9199,-34.723 41.5094,-45.3014 47.9775,-42.6249"/>
<text text-anchor="middle" x="61" y="-57.8" font-family="Times,serif" font-size="14.00" fill="#000000">14</text>
</g>
</g>
</svg>
